<?xml version="1.0" encoding="UTF-8"?>
<!DOCTYPE svg PUBLIC "-//W3C//DTD SVG 1.1//EN" "http://www.w3.org/Graphics/SVG/1.1/DTD/svg11.dtd">
<!-- Creator: CorelDRAW 2018 (64-Bit) -->
<svg xmlns="http://www.w3.org/2000/svg" xml:space="preserve" width="215.681mm" height="56.9179mm" version="1.1" style="shape-rendering:geometricPrecision; text-rendering:geometricPrecision; image-rendering:optimizeQuality; fill-rule:evenodd; clip-rule:evenodd"
viewBox="0 0 21302.26 5621.63"
 xmlns:xlink="http://www.w3.org/1999/xlink">
 <defs>
  <style type="text/css">
   <![CDATA[
    .fil1 {fill:#FEFEFE}
    .fil2 {fill:#187934;fill-rule:nonzero}
    .fil0 {fill:url(#id0)}
   ]]>
  </style>
  <linearGradient id="id0" gradientUnits="userSpaceOnUse" x1="14569.05" y1="-239.95" x2="14569.18" y2="3373.16">
   <stop offset="0" style="stop-opacity:1; stop-color:#FFCC00"/>
   <stop offset="1" style="stop-opacity:1; stop-color:#FF6600"/>
  </linearGradient>
 </defs>
 <g id="Layer_x0020_1">
  <metadata id="CorelCorpID_0Corel-Layer"/>
  <g id="_2597353087312">
   <path class="fil0" d="M857.35 2991.91l1216.79 -471.05 -783.73 -286.02 -858.87 349.85 -315.11 -364.39 828.17 -175.33c-28.29,0 -82.42,-16.97 -163.21,-51.7 -86.45,-36.37 -159.97,-88.88 -219.77,-155.94 -64.63,-74.33 -96.96,-159.97 -96.96,-256.12 4.04,-165.63 84.03,-294.91 238.36,-387.82 147.04,-85.65 321.57,-131.71 523.57,-137.36 217.34,0 405.6,45.25 563.15,137.36 160.78,92.91 241.59,225.42 241.59,397.52 0,116.35 -33.94,211.69 -101.81,286.02 -77.56,75.94 -147.04,127.66 -208.46,154.31l-92.1 35.56c-26.67,8.89 -48.48,15.35 -63.83,18.58l809.59 310.27 0 -1275.79 614.86 0 7.28 1969.02 269.86 0 0 246.43 -892 0 0 -615.68 -1143.28 620.53 -374.08 -348.23zm147.04 -1382.44c0,99.38 30.71,180.18 92.11,241.59 59.79,61.4 108.27,96.96 144.63,106.65 48.48,-16.16 103.42,-50.09 165.63,-101.8 67.87,-52.52 101.81,-132.51 101.81,-241.59 0,-105.84 -23.44,-185.83 -68.68,-241.59 -50.9,-54.94 -117.16,-82.41 -198.76,-82.41 -72.71,4.85 -130.09,32.32 -170.48,82.41 -39.59,54.13 -62.21,132.51 -66.25,236.74zm3054.93 1479.39l241.59 0 0 246.43 -861.29 0 0 -2385.93c0,-198.76 -22.63,-371.66 -68.68,-518.72 -49.28,-135.74 -147.04,-203.6 -293.29,-203.6 -208.46,4.84 -312.69,147.04 -312.69,426.61 0,59.78 5.66,116.35 16.17,170.48l19.39 110.69 -615.68 0 -9.69 -66.25c-7.28,-58.17 -11.32,-104.23 -11.32,-137.36 0,-187.45 63.02,-353.89 189.07,-499.33 126.04,-145.44 361.97,-217.34 707.78,-217.34 153.51,0 290.87,29.09 412.07,87.26 126.04,66.25 231.08,150.27 315.11,251.27 88.07,103.42 154.32,222.2 198.76,354.7 45.25,135.74 68.67,273.09 68.67,412.06l4.04 1969.02zm1666.84 -525.18c0,-195.53 58.98,-353.89 175.33,-473.47 118.77,-124.43 244,-215.73 376.51,-272.28 140.59,-54.94 229.47,-82.41 267.43,-82.41 -71.09,-11.32 -149.47,-42.02 -236.73,-92.92 -94.54,-48.48 -142.21,-127.66 -142.21,-236.74 4.85,-135.74 84.83,-223 239.16,-262.58 143.82,-36.37 353.89,-56.56 630.22,-61.41 94.53,0 197.95,9.7 309.46,28.29 120.39,21.81 197.95,37.97 231.89,47.67l0 243.2 -181.8 -39.59c-107.46,-19.39 -201.18,-29.09 -281.98,-29.09 -201.99,0 -305.41,58.98 -309.45,175.33 0,64.63 16.97,114.73 51.71,149.47 34.74,36.36 80.79,58.97 137.35,68.67 39.6,10.51 122.82,27.47 250.47,49.28 446.8,67.87 670.61,242.4 670.61,523.57 -4.84,172.09 -72.71,289.25 -203.61,352.27 -125.23,60.59 -296.52,92.92 -513.87,96.96 -87.26,0 -191.48,-13.74 -312.68,-42.02l-158.36 -40.4 0 -260.17c23.43,13.74 67.06,28.28 130.09,42.02 63.01,21.01 129.27,30.71 198.76,30.71 71.1,-5.66 132.51,-32.32 185.02,-77.57 54.94,-46.05 82.41,-92.1 82.41,-137.35 0,-91.3 -25.86,-160.79 -78.37,-208.46 -51.7,-46.06 -135.74,-81.61 -250.47,-106.65l-286.82 -61.41 -58.98 23.44c-36.36,12.93 -75.14,40.4 -115.54,83.22 -42.83,36.36 -78.37,95.34 -106.66,177.75 -29.89,83.22 -45.25,183.41 -45.25,300.56 0,230.28 54.94,405.6 165.63,525.19 112.31,126.04 258.55,189.06 440.34,189.06 170.48,0 316.73,-14.54 437.92,-44.44 129.27,-36.36 231.08,-71.91 305.41,-106.66 71.1,-33.13 106.65,-53.32 106.65,-58.97l0 290.87c-47.67,26.66 -154.32,62.21 -319.96,106.65 -149.47,42.83 -323.99,63.82 -522.76,63.82 -244.8,0 -466.19,-37.17 -664.95,-111.5 -191.49,-72.71 -337.74,-176.13 -440.34,-310.26 -107.46,-130.89 -161.59,-281.17 -161.59,-451.65zm2590.34 771.61l0 -2215.45c0,-221.38 45.25,-415.3 134.94,-582.54 84.83,-165.63 214.92,-298.14 387.82,-397.52 173.71,-92.92 375.71,-139.79 605.98,-139.79 347.42,0 631.03,53.32 849.98,160.78 210.08,102.62 362.78,212.5 459.73,328.85 83.22,107.46 138.17,194.72 165.63,260.97l-513.87 160.78c0,-14.54 -16.97,-55.74 -50.09,-125.23 -26.66,-69.49 -74.33,-149.47 -143.82,-239.17 -74.33,-88.87 -168.05,-162.39 -281.98,-223 -113.92,-61.4 -252.08,-92.11 -416.91,-92.11 -235.13,0 -391.87,105.04 -471.05,315.11 -73.52,212.5 -110.69,403.99 -110.69,572.85l4.85 1969.02 243.2 0 0 246.43 -863.72 0zm1065.71 -1973.87l0 -241.59 880.69 0c119.58,0 233.51,29.09 340.96,87.26 109.88,67.87 193.91,148.66 250.46,241.59 61.4,99.38 92.11,211.69 92.11,336.12 0,281.17 -90.49,467.81 -272.28,560.73 -174.52,92.1 -358.74,137.36 -551.03,137.36l155.93 488.01c12.93,51.7 26.66,82.41 42.83,92.11 21.81,14.54 52.51,21.01 92.1,21.01l450.04 0 0 251.27 -934.82 0c-65.44,0 -118.77,-16.16 -161.59,-47.68 -34.74,-31.51 -61.4,-84.83 -79.98,-160.78l-189.88 -643.94 -281.17 0 0 -272.29 809.59 0c74.33,0 144.63,-37.98 212.5,-115.54 66.25,-71.1 101.8,-172.9 106.65,-305.41 0,-117.16 -32.32,-217.35 -96.96,-300.57 -63.01,-85.64 -145.44,-127.66 -246.42,-127.66l-619.72 0zm5027.99 650.41l-694.05 0c67.87,19.39 144.63,65.44 230.28,139.78 79.98,71.1 120.39,197.15 120.39,378.94 -4.85,165.63 -75.95,293.29 -213.31,382.98 -143.01,93.72 -311.07,139.78 -504.17,139.78 -167.25,-4.85 -311.07,-26.67 -433.08,-66.25 -134.13,-45.25 -239.16,-115.54 -315.11,-210.07 -78.37,-96.96 -120.39,-225.43 -125.24,-386.21 0,-184.22 75.95,-338.55 227.04,-461.35 148.67,-120.39 327.24,-180.18 535.68,-180.18l1171.56 4.85 0 257.74zm-648.8 374.09c-4.85,-126.05 -42.02,-216.54 -111.5,-272.28 -73.52,-63.02 -134.13,-96.96 -179.37,-101.81 -118.77,0 -214.11,29.09 -286.82,88.07 -76.76,58.17 -115.55,178.56 -115.55,361.97 0,113.92 35.56,196.33 105.85,248.85 67.87,48.48 150.28,75.94 246.42,82.41 113.93,0 199.57,-29.09 257.74,-87.26 55.75,-60.6 83.22,-166.44 83.22,-319.96zm646.37 949.36l0 -2215.45 615.68 0 4.85 1969.02 262.58 0 0 246.43 -883.11 0zm2843.25 -1138.42l-480.75 0c-41.21,67.86 -113.11,123.62 -217.34,168.05 -125.24,54.94 -242.4,82.41 -353.08,82.41l130.09 528.42c4.84,46.86 19.39,77.56 42.82,92.1 21.82,14.55 53.32,21.01 92.11,21.01l462.16 0 0 246.43 -935.63 0c-66.25,0 -119.58,-16.16 -160.78,-47.68 -31.51,-23.43 -57.36,-76.75 -78.37,-160.78l-172.1 -679.5 -258.54 0 0 -269.86 717.48 0c74.33,0 135.74,-42.02 185.02,-127.66 45.25,-84.84 67.87,-181.79 67.87,-290.87 0,-96.15 -25.86,-186.64 -77.56,-269.86 -54.13,-88.87 -123.63,-132.51 -208.46,-132.51l-499.33 0 0 -236.74 809.59 0c168.86,0 315.11,69.48 440.34,208.46 88.07,91.3 132.51,241.59 132.51,451.65l-7.27 125.24 369.24 0 0 291.68zm-0.01 1138.42l0 -2215.45 615.68 0 4.85 1969.02 262.58 0 0 246.43 -883.11 0zm218.16 -2215.45c-6.47,-3.23 -26.67,-27.47 -61.41,-73.52 -33.13,-41.21 -62.21,-100.19 -88.06,-177.75 -29.9,-74.33 -44.45,-153.51 -44.45,-239.17 0,-403.98 249.66,-605.97 749.8,-605.97 100.99,0 208.45,13.73 322.38,40.4l0 274.71c-58.17,-37.98 -165.63,-56.56 -322.38,-56.56 -88.07,4.85 -155.13,46.06 -201.19,125.24 -48.48,82.41 -72.71,185.02 -72.71,310.26 0,84.84 22.62,171.29 68.67,257.74 43.63,85.64 75.95,133.32 96.96,144.63l-447.61 0zm895.23 241.59l0 -241.59 880.69 0c119.58,0 233.51,29.09 340.96,87.26 109.88,67.87 193.91,148.66 250.46,241.59 61.4,99.38 92.11,211.69 92.11,336.12 0,281.17 -90.49,467.81 -272.28,560.73 -174.52,92.1 -358.74,137.36 -551.03,137.36l155.93 488.01c12.93,51.7 26.66,82.41 42.83,92.11 21.81,14.54 52.51,21.01 92.1,21.01l450.04 0 0 251.27 -934.82 0c-65.44,0 -118.77,-16.16 -161.59,-47.68 -34.74,-31.51 -61.4,-84.83 -79.98,-160.78l-189.88 -643.94 -281.17 0 0 -272.29 809.59 0c74.33,0 144.63,-37.98 212.5,-115.54 66.25,-71.1 101.8,-172.9 106.65,-305.41 0,-117.16 -32.32,-217.35 -96.96,-300.57 -63.01,-85.64 -145.44,-127.66 -246.42,-127.66l-619.72 0zm2579.84 1727.43l241.59 0 0 246.43 -861.29 0 0 -2385.93c0,-198.76 -22.63,-371.66 -68.68,-518.72 -49.28,-135.74 -147.04,-203.6 -293.29,-203.6 -208.46,4.84 -312.69,147.04 -312.69,426.61 0,59.78 5.66,116.35 16.17,170.48l19.39 110.69 -615.68 0 -9.69 -66.25c-7.28,-58.17 -11.32,-104.23 -11.32,-137.36 0,-187.45 63.02,-353.89 189.07,-499.33 126.04,-145.44 361.97,-217.34 707.78,-217.34 153.51,0 290.87,29.09 412.07,87.26 126.04,66.25 231.08,150.27 315.11,251.27 88.07,103.42 154.32,222.2 198.76,354.7 45.25,135.74 68.67,273.09 68.67,412.06l4.04 1969.02z"/>
   <g>
    <polygon class="fil1" points="-0,4361.57 21302.26,4361.57 21302.26,5621.63 -0,5621.63 "/>
    <g>
     <path class="fil2" d="M440.33 4840.65c-24.07,0 -53.76,9.05 -89.05,26.96l-30.23 -62.98 48.87 -11.76 29.15 -5.25c18.28,-3.26 40,-4.7 65.16,-4.7 51.22,0.9 96.48,12.31 135.75,33.85 37.11,20.45 55.75,51.22 55.75,92.31 0,29.68 -7.97,52.49 -23.89,68.42 -17.02,17.56 -34.21,29.68 -51.41,36.02 -18.46,6.33 -30.22,9.59 -35.66,9.59 8.5,0 22.63,3.62 42.54,11.04 22.26,8.15 42.35,20.63 60.45,37.65 19.73,18.46 29.69,43.44 29.69,75.29 0,53.39 -20.09,92.5 -59.91,117.29 -40.37,25.71 -88.51,38.74 -144.8,38.74 -42.72,0 -82.17,-6.15 -118.19,-18.09 -34.39,-11.95 -59.01,-22.63 -73.85,-31.86l41.44 -68.42c14.12,12.13 33.48,24.44 58.28,37.11 27.33,15.2 54.48,22.81 81.63,22.81 25.16,-1.09 46.15,-8.87 63.17,-23.89 17.37,-15.2 26.06,-38.55 26.06,-70.41 0,-31.49 -10.5,-54.3 -31.32,-68.42 -21.9,-14.84 -48.5,-22.81 -79.64,-23.89 -32.76,0 -57.02,1.81 -72.58,5.24l0 -72.57c2.17,1.09 11.04,2.17 26.97,3.26 16.29,1.99 30.41,3.07 42.53,3.07 64.26,-3.07 96.48,-28.42 96.48,-75.83 0,-24.8 -9.41,-44.35 -28.05,-58.83 -19.19,-14.48 -40.91,-21.72 -65.34,-21.72zm1055.76 196.74l-107.7 0c-9.23,15.2 -25.34,27.69 -48.69,37.65 -28.05,12.31 -54.29,18.46 -79.09,18.46l29.15 118.37c1.08,10.5 4.34,17.37 9.59,20.63 4.89,3.26 11.94,4.71 20.63,4.71l103.53 0 0 55.2 -209.59 0c-14.84,0 -26.79,-3.62 -36.02,-10.68 -7.06,-5.25 -12.85,-17.2 -17.55,-36.02l-38.56 -152.22 -57.92 0 0 -60.46 160.72 0c16.65,0 30.41,-9.41 41.45,-28.59 10.13,-19.01 15.2,-40.73 15.2,-65.17 0,-21.53 -5.79,-41.81 -17.37,-60.46 -12.13,-19.9 -27.69,-29.68 -46.7,-29.68l-111.86 0 0 -53.03 181.37 0c37.83,0 70.59,15.57 98.65,46.7 19.72,20.44 29.68,54.11 29.68,101.18l-1.63 28.05 82.72 0 0 65.34zm43.98 -236.02c3.62,-0.72 8.51,-1.63 14.84,-2.72l30.77 -4.7c28.97,-3.45 52.13,-5.25 69.51,-5.25 59.36,1.09 106.79,10.32 142.08,28.06 37.11,18.46 55.75,48.14 55.75,89.05 0,20.63 -5.61,37.83 -16.47,51.95 -9.59,12.85 -26.61,25.51 -50.87,38.18 -19.9,10.32 -51.76,22.63 -95.57,37.11 -23.35,6.52 -40.72,19.73 -52.49,39.82 -13.03,19.72 -19.55,42.53 -19.55,68.42 1.44,28.59 10.13,53.39 26.42,74.21 16.65,20.81 37.83,31.31 63.71,31.31 27.87,0 53.39,-5.43 76.39,-16.47 21.9,-9.22 40.18,-20.63 55.02,-34.39 14.11,-12.13 21.72,-19.72 22.81,-22.81l49.96 57.2 -39.82 28.6c-20.45,11.76 -44.89,22.07 -73.13,31.31 -32.57,9.96 -66.79,14.84 -102.98,14.84 -40.18,0 -77.11,-5.25 -110.78,-15.93 -32.22,-9.41 -59.72,-27.15 -82.71,-53.03 -20.82,-25.34 -31.32,-58.1 -31.32,-98.11 0,-67.15 54.67,-116.2 163.81,-147.33 56.65,-16.29 84.89,-44.17 84.89,-83.8 -1.09,-19.73 -7.61,-35.66 -19.55,-47.78 -12.67,-11.59 -30.41,-17.37 -53.04,-17.37 -18.09,0 -40.18,4.7 -66.24,14.29 -27.69,9.96 -41.45,15.21 -41.45,15.93l0 -70.59zm431.68 491.05l0 -496.3 137.92 0 1.09 441.1 58.83 0 0 55.2 -197.83 0zm238.74 -442.18l0 -54.11 197.29 0c26.8,0 52.31,6.51 76.39,19.55 24.61,15.2 43.44,33.3 56.11,54.11 13.76,22.26 20.63,47.43 20.63,75.3 0,62.98 -20.28,104.79 -61,125.61 -39.09,20.63 -80.37,30.77 -123.44,30.77l34.93 109.33c2.89,11.59 5.98,18.46 9.59,20.63 4.89,3.26 11.76,4.71 20.63,4.71l100.82 0 0 56.29 -209.42 0c-14.67,0 -26.61,-3.62 -36.2,-10.68 -7.78,-7.06 -13.76,-19 -17.93,-36.02l-42.53 -144.26 -62.99 0 0 -61 181.37 0c16.65,0 32.4,-8.5 47.61,-25.88 14.83,-15.93 22.81,-38.74 23.89,-68.42 0,-26.25 -7.25,-48.69 -21.73,-67.34 -14.11,-19.18 -32.57,-28.59 -55.2,-28.59l-138.83 0zm741.37 0l0 -54.11 197.29 0c26.8,0 52.31,6.51 76.39,19.55 24.61,15.2 43.44,33.3 56.11,54.11 13.76,22.26 20.63,47.43 20.63,75.3 0,62.98 -20.28,104.79 -61,125.61 -39.09,20.63 -80.37,30.77 -123.44,30.77l34.93 109.33c2.89,11.59 5.98,18.46 9.59,20.63 4.89,3.26 11.76,4.71 20.63,4.71l100.82 0 0 56.29 -209.42 0c-14.67,0 -26.61,-3.62 -36.2,-10.68 -7.78,-7.06 -13.76,-19 -17.93,-36.02l-42.53 -144.26 -62.99 0 0 -61 181.37 0c16.65,0 32.4,-8.5 47.61,-25.88 14.83,-15.93 22.81,-38.74 23.89,-68.42 0,-26.25 -7.25,-48.69 -21.73,-67.34 -14.11,-19.18 -32.57,-28.59 -55.2,-28.59l-138.83 0zm-73.13 -253.04l-1.63 -53.03 193.49 0 209.6 251.96 -120.37 0 -213.76 -198.93 -67.33 0zm566.34 204.17c3.62,-0.72 8.51,-1.63 14.84,-2.72l30.77 -4.7c28.97,-3.45 52.13,-5.25 69.51,-5.25 59.36,1.09 106.79,10.32 142.08,28.06 37.11,18.46 55.75,48.14 55.75,89.05 0,20.63 -5.61,37.83 -16.47,51.95 -9.59,12.85 -26.61,25.51 -50.87,38.18 -19.9,10.32 -51.76,22.63 -95.57,37.11 -23.35,6.52 -40.72,19.73 -52.49,39.82 -13.03,19.72 -19.55,42.53 -19.55,68.42 1.44,28.59 10.13,53.39 26.42,74.21 16.65,20.81 37.83,31.31 63.71,31.31 27.87,0 53.39,-5.43 76.39,-16.47 21.9,-9.22 40.18,-20.63 55.02,-34.39 14.11,-12.13 21.72,-19.72 22.81,-22.81l49.96 57.2 -39.82 28.6c-20.45,11.76 -44.89,22.07 -73.13,31.31 -32.57,9.96 -66.79,14.84 -102.98,14.84 -40.18,0 -77.11,-5.25 -110.78,-15.93 -32.22,-9.41 -59.72,-27.15 -82.71,-53.03 -20.82,-25.34 -31.32,-58.1 -31.32,-98.11 0,-67.15 54.67,-116.2 163.81,-147.33 56.65,-16.29 84.89,-44.17 84.89,-83.8 -1.09,-19.73 -7.61,-35.66 -19.55,-47.78 -12.67,-11.59 -30.41,-17.37 -53.04,-17.37 -18.09,0 -40.18,4.7 -66.24,14.29 -27.69,9.96 -41.45,15.21 -41.45,15.93l0 -70.59zm-80 -204.17l-1.63 -53.03 193.49 0 209.6 251.96 -120.37 0 -213.76 -198.93 -67.33 0zm849.06 271.5c-4.35,-1.81 -9.22,-3.44 -14.83,-5.24l-23.35 -7.43c-17.38,-5.24 -40.54,-7.96 -69.51,-7.96 -42.35,0 -64.25,21.72 -65.16,65.16 0,19.56 5.07,35.48 15.39,47.78 9.05,11.23 21.54,19.56 37.11,24.98 13.75,5.61 32.03,9.96 55.02,13.22 51.94,8.87 91.76,25.34 119.27,49.78 27.69,25.52 41.45,55.2 41.45,89.05 0,59.73 -22.08,102.63 -66.24,128.33 -44.52,25.89 -98.46,38.74 -161.82,38.74 -45.61,0 -84.34,-6.7 -116.01,-20.09 -33.67,-15.21 -57.93,-29.69 -72.76,-43.45 -17.56,-15.2 -30.05,-28.05 -37.11,-38.18l56.29 -67.34c0,4.53 6.88,15.93 20.63,33.85 14.12,18.47 33.85,35.66 58.83,51.95 24.44,15.93 52.67,23.89 84.89,23.89 31.85,-1.09 56.29,-10.68 73.67,-29.15 17.37,-18.64 26.06,-43.07 26.06,-73.12 0,-27.69 -9.41,-51.41 -28.24,-71.68 -20.09,-19.73 -44.35,-31.32 -72.58,-34.39 -111.68,-16.29 -167.61,-58.1 -167.61,-125.26 0,-32.76 8.69,-58.46 26.06,-76.74 15.93,-18.09 38.37,-30.4 67.33,-37.11 29.69,-5.42 65.89,-8.5 108.6,-9.59 29.5,0 64.26,6.52 104.61,19.55l0 60.46zm244.89 474.59c7.06,-12.32 10.69,-27.52 10.69,-45.62 -9.6,0 -23.89,-4.88 -42.9,-14.83 -18.46,-9.78 -27.68,-27.69 -27.68,-53.58 0,-22.62 7.6,-40.9 22.81,-55.02 15.57,-14.48 34.93,-21.72 57.74,-21.72 29.14,0.91 50.13,11.76 63.16,32.22 13.04,21.91 19.73,47.06 19.73,75.3 -1.45,49.59 -12.49,87.42 -32.94,113.48 -20.45,26.97 -42,44.16 -64.26,51.94 -22.63,8.15 -38.19,12.32 -46.52,12.32l-27.15 -46.7c6.34,-2.9 18.1,-9.06 35.11,-18.65 13.76,-7.42 24.44,-17.02 32.22,-29.14zm2790.81 -305.89l-107.7 0c-9.23,15.2 -25.34,27.69 -48.69,37.65 -28.05,12.31 -54.29,18.46 -79.09,18.46l29.15 118.37c1.08,10.5 4.34,17.37 9.59,20.63 4.89,3.26 11.94,4.71 20.63,4.71l103.53 0 0 55.2 -209.59 0c-14.84,0 -26.79,-3.62 -36.02,-10.68 -7.06,-5.25 -12.85,-17.2 -17.55,-36.02l-38.56 -152.22 -57.92 0 0 -60.46 160.72 0c16.65,0 30.41,-9.41 41.45,-28.59 10.13,-19.01 15.2,-40.73 15.2,-65.17 0,-21.53 -5.79,-41.81 -17.37,-60.46 -12.13,-19.9 -27.69,-29.68 -46.7,-29.68l-111.86 0 0 -53.03 181.37 0c37.83,0 70.59,15.57 98.65,46.7 19.72,20.44 29.68,54.11 29.68,101.18l-1.63 28.05 82.72 0 0 65.34zm0 255.03l0 -496.3 137.92 0 1.09 441.1 58.83 0 0 55.2 -197.83 0zm238.74 -442.18l0 -54.11 197.29 0c26.8,0 52.31,6.51 76.39,19.55 24.61,15.2 43.44,33.3 56.11,54.11 13.76,22.26 20.63,47.43 20.63,75.3 0,62.98 -20.28,104.79 -61,125.61 -39.09,20.63 -80.37,30.77 -123.44,30.77l34.93 109.33c2.89,11.59 5.98,18.46 9.59,20.63 4.89,3.26 11.76,4.71 20.63,4.71l100.82 0 0 56.29 -209.42 0c-14.67,0 -26.61,-3.62 -36.2,-10.68 -7.78,-7.06 -13.76,-19 -17.93,-36.02l-42.53 -144.26 -62.99 0 0 -61 181.37 0c16.65,0 32.4,-8.5 47.61,-25.88 14.83,-15.93 22.81,-38.74 23.89,-68.42 0,-26.25 -7.25,-48.69 -21.73,-67.34 -14.11,-19.18 -32.57,-28.59 -55.2,-28.59l-138.83 0zm611.41 144.62c-7.05,0 -21.9,-4.34 -44.52,-13.21 -22.63,-7.43 -43.62,-19.56 -63.17,-36.56 -19.36,-16.3 -29.14,-36.2 -29.14,-59.91 0,-34.93 17.37,-60.63 51.95,-76.93 33.66,-15.2 74.03,-22.81 121.44,-22.81 25.52,0 56.65,2.9 93.39,8.51 35.3,5.61 56.65,10.13 64.08,13.21l-5.25 60.46c-2.53,-2.35 -7.24,-4.89 -14.3,-7.42 -5.97,-2 -15.02,-4.52 -27.14,-7.42 -19.01,-5.25 -41.45,-7.97 -67.34,-7.97 -46.15,1.09 -69.31,21.54 -69.31,61 0,15.2 3.98,30.77 12.12,46.7 7.06,15.57 19.01,26.06 35.48,31.31l241.28 -31.31 38.18 62.09 -218.46 13.76c7.06,0 22.63,4.7 46.7,14.29 26.24,9.23 49.59,23.71 70.59,43.45 22.63,20.27 33.85,46.88 33.85,80.18 -1.09,89.05 -78.19,133.57 -231.68,133.57 -49.59,0 -94.85,-9.41 -135.75,-28.05 -40,-18.83 -70.05,-36.02 -90.15,-51.95l56.65 -68.42c1.45,4.17 10.5,13.58 27.15,28.06 17.56,16.65 38.74,30.77 62.99,42.35 25.16,13.22 50.13,19.72 74.75,19.72 60.82,0 91.22,-29.31 91.22,-88.14 0,-26.06 -5.79,-47.06 -17.37,-62.99 -12.48,-17.01 -24.98,-28.96 -37.65,-36.01 -13.94,-7.78 -21.72,-11.77 -23.89,-11.77l-242.36 39.28 -22.81 -67.33 218.46 -19.73zm417.93 297.57l0 -496.3 137.92 0 1.09 441.1 58.83 0 0 55.2 -197.83 0zm238.74 -442.18l0 -54.11 197.29 0c26.8,0 52.31,6.51 76.39,19.55 24.61,15.2 43.44,33.3 56.11,54.11 13.76,22.26 20.63,47.43 20.63,75.3 0,62.98 -20.28,104.79 -61,125.61 -39.09,20.63 -80.37,30.77 -123.44,30.77l34.93 109.33c2.89,11.59 5.98,18.46 9.59,20.63 4.89,3.26 11.76,4.71 20.63,4.71l100.82 0 0 56.29 -209.42 0c-14.67,0 -26.61,-3.62 -36.2,-10.68 -7.78,-7.06 -13.76,-19 -17.93,-36.02l-42.53 -144.26 -62.99 0 0 -61 181.37 0c16.65,0 32.4,-8.5 47.61,-25.88 14.83,-15.93 22.81,-38.74 23.89,-68.42 0,-26.25 -7.25,-48.69 -21.73,-67.34 -14.11,-19.18 -32.57,-28.59 -55.2,-28.59l-138.83 0zm927.98 214.12l0 31.32c0,15.92 -9.23,30.77 -27.51,44.52 -17.38,13.39 -41.27,20.63 -71.69,21.72 -31.85,0 -56.64,-9.05 -74.75,-26.96 -17.92,-17.02 -26.97,-36.56 -26.97,-58.83 1.09,-33.67 10.69,-55.21 29.15,-64.8 19,-10.13 34.57,-15.39 46.7,-15.39l0 -101.72 0.91 -19.72c0,-9.41 -2,-17.56 -6.34,-24.26 -1.99,-4.35 -8.87,-6.52 -20.63,-6.52 -11.59,0 -25.16,2.17 -40.37,6.52 -14.11,4.16 -22.07,7.24 -23.7,8.87l0 -62.98c3.07,-5.08 28.05,-7.43 74.75,-7.43 61.54,0 100.46,7.24 117.11,21.72 15.57,14.12 23.35,35.84 23.35,65.17l0 120.36 123.63 0 0 68.42 -123.63 0zm104.98 228.06l0 -496.3 137.92 0 1.09 441.1 58.83 0 0 55.2 -197.83 0zm237.65 0l0 -496.3 137.92 0 1.09 441.1 58.83 0 0 55.2 -197.83 0zm623.73 -296.48l-155.48 0c15.21,4.35 32.41,14.67 51.59,31.32 17.92,15.92 26.97,44.16 26.97,84.88 -1.09,37.11 -17.02,65.71 -47.78,85.8 -32.04,21 -69.69,31.31 -112.95,31.31 -37.46,-1.09 -69.68,-5.97 -97.01,-14.83 -30.05,-10.14 -53.58,-25.89 -70.59,-47.06 -17.56,-21.72 -26.97,-50.5 -28.06,-86.52 0,-41.27 17.02,-75.83 50.87,-103.35 33.3,-26.96 73.31,-40.37 120,-40.37l262.44 1.09 0 57.74zm-145.34 83.8c-1.09,-28.24 -9.41,-48.5 -24.98,-61 -16.47,-14.11 -30.05,-21.72 -40.19,-22.81 -26.61,0 -47.96,6.52 -64.25,19.73 -17.2,13.03 -25.89,40 -25.89,81.09 0,25.52 7.96,43.98 23.71,55.74 15.2,10.86 33.66,17.02 55.2,18.46 25.52,0 44.71,-6.51 57.74,-19.55 12.48,-13.57 18.65,-37.28 18.65,-71.68zm505.89 102.99c-42.72,28.96 -87.96,43.44 -135.75,43.44 -40.91,0 -81.45,-7.24 -121.45,-21.72 -39.28,-13.94 -71.31,-35.66 -96.47,-65.34 -25.52,-28.59 -38.19,-62.81 -38.19,-102.81 0,-11.41 5.07,-20.45 15.38,-27.52 11.23,-5.79 23.54,-8.5 36.56,-8.5l97.02 0c18.46,0 32.76,-6.87 43.07,-20.81 10.86,-14.12 16.3,-31.67 16.3,-53.04 0,-23.17 -4.52,-41.81 -13.76,-55.57 -10.13,-14.48 -23.71,-21.72 -40.18,-21.72l-115.12 0 0 -53.03 170.15 0c22.62,0 43.98,5.07 64.25,15.38 19.37,9.41 34.58,23.71 45.62,42.36 11.58,18.82 17.37,41.27 17.37,67.33 -2,83.44 -43.44,126.7 -123.98,129.96 -4.89,0 -14.67,-0.73 -29.15,-2.17l-23.89 -2c-11.04,0 -16.46,5.07 -16.46,15.21 0,13.94 3.79,28.05 11.22,42.53 5.97,14.84 17.37,28.6 34.39,41.27 15.92,11.41 37.28,17.02 64.07,17.02 32.22,-1.09 62.26,-8.33 90.32,-21.72 26.79,-11.59 43.07,-22.08 48.68,-31.31l0 72.76zm-1.09 109.68l0 -496.3 137.92 0 1.09 441.1 58.83 0 0 55.2 -197.83 0zm3750.31 -255.03l-107.7 0c-9.23,15.2 -25.34,27.69 -48.69,37.65 -28.05,12.31 -54.29,18.46 -79.09,18.46l29.15 118.37c1.08,10.5 4.34,17.37 9.59,20.63 4.89,3.26 11.94,4.71 20.63,4.71l103.53 0 0 55.2 -209.59 0c-14.84,0 -26.79,-3.62 -36.02,-10.68 -7.06,-5.25 -12.85,-17.2 -17.55,-36.02l-38.56 -152.22 -57.92 0 0 -60.46 160.72 0c16.65,0 30.41,-9.41 41.45,-28.59 10.13,-19.01 15.2,-40.73 15.2,-65.17 0,-21.53 -5.79,-41.81 -17.37,-60.46 -12.13,-19.9 -27.69,-29.68 -46.7,-29.68l-111.86 0 0 -53.03 181.37 0c37.83,0 70.59,15.57 98.65,46.7 19.72,20.44 29.68,54.11 29.68,101.18l-1.63 28.05 82.72 0 0 65.34zm0 255.03l0 -496.3 137.92 0 1.09 441.1 58.83 0 0 55.2 -197.83 0zm281.64 -491.05c3.62,-0.72 8.51,-1.63 14.84,-2.72l30.77 -4.7c28.97,-3.45 52.13,-5.25 69.51,-5.25 59.36,1.09 106.79,10.32 142.08,28.06 37.11,18.46 55.75,48.14 55.75,89.05 0,20.63 -5.61,37.83 -16.47,51.95 -9.59,12.85 -26.61,25.51 -50.87,38.18 -19.9,10.32 -51.76,22.63 -95.57,37.11 -23.35,6.52 -40.72,19.73 -52.49,39.82 -13.03,19.72 -19.55,42.53 -19.55,68.42 1.44,28.59 10.13,53.39 26.42,74.21 16.65,20.81 37.83,31.31 63.71,31.31 27.87,0 53.39,-5.43 76.39,-16.47 21.9,-9.22 40.18,-20.63 55.02,-34.39 14.11,-12.13 21.72,-19.72 22.81,-22.81l49.96 57.2 -39.82 28.6c-20.45,11.76 -44.89,22.07 -73.13,31.31 -32.57,9.96 -66.79,14.84 -102.98,14.84 -40.18,0 -77.11,-5.25 -110.78,-15.93 -32.22,-9.41 -59.72,-27.15 -82.71,-53.03 -20.82,-25.34 -31.32,-58.1 -31.32,-98.11 0,-67.15 54.67,-116.2 163.81,-147.33 56.65,-16.29 84.89,-44.17 84.89,-83.8 -1.09,-19.73 -7.61,-35.66 -19.55,-47.78 -12.67,-11.59 -30.41,-17.37 -53.04,-17.37 -18.09,0 -40.18,4.7 -66.24,14.29 -27.69,9.96 -41.45,15.21 -41.45,15.93l0 -70.59zm571.05 435.85l54.11 0 0 55.2 -192.94 0 0 -534.49c0,-44.52 -5.07,-83.26 -15.39,-116.2 -11.03,-30.41 -32.94,-45.61 -65.7,-45.61 -46.7,1.08 -70.05,32.94 -70.05,95.57 0,13.39 1.26,26.05 3.62,38.18l4.34 24.8 -137.92 0 -2.17 -14.84c-1.63,-13.03 -2.53,-23.35 -2.53,-30.77 0,-42 14.11,-79.28 42.35,-111.86 28.24,-32.57 81.09,-48.68 158.55,-48.68 34.39,0 65.17,6.52 92.32,19.55 28.23,14.84 51.76,33.67 70.59,56.29 19.72,23.17 34.57,49.78 44.52,79.46 10.13,30.41 15.38,61.19 15.38,92.32l0.91 441.1zm-90.5 -441.1c-1.44,-0.73 -5.97,-6.16 -13.75,-16.47 -7.43,-9.23 -13.95,-22.44 -19.73,-39.82 -6.7,-16.65 -9.96,-34.39 -9.96,-53.57 0,-90.5 55.93,-135.76 167.96,-135.76 22.63,0 46.71,3.08 72.23,9.06l0 61.53c-13.04,-8.5 -37.11,-12.66 -72.23,-12.66 -19.72,1.09 -34.75,10.31 -45.07,28.05 -10.85,18.46 -16.29,41.45 -16.29,69.5 0,19.01 5.07,38.37 15.39,57.74 9.77,19.19 17.01,29.87 21.72,32.41l-100.28 0zm246.16 459.19c-3.61,-1.81 -6.33,-3.26 -8.5,-4.35 -3.26,-1.63 -6.15,-3.25 -9.05,-4.7 -7.43,-3.8 -14.3,-8.15 -20.64,-12.67 -13.39,-9.23 -20.99,-13.76 -22.81,-13.76l56.65 -68.42c1.45,4.17 10.5,13.58 27.15,28.06 17.56,16.65 38.74,30.77 62.99,42.35 25.16,13.22 50.13,19.72 74.75,19.72 60.82,0 91.22,-29.31 91.22,-88.14 0,-26.06 -5.79,-47.06 -17.37,-62.99 -12.48,-17.01 -24.98,-28.96 -37.65,-36.01 -13.94,-7.78 -21.72,-11.77 -23.89,-11.77l-242.36 39.28 -22.81 -67.33 218.46 -19.73c-7.05,0 -21.9,-4.34 -44.52,-13.21 -22.63,-7.43 -43.62,-19.56 -63.17,-36.56 -19.36,-16.3 -29.14,-36.2 -29.14,-59.91 0,-34.93 17.37,-60.63 51.95,-76.93 33.66,-15.2 74.03,-22.81 121.44,-22.81 25.52,0 56.65,2.9 93.39,8.51 35.3,5.61 56.65,10.13 64.08,13.21l-5.25 60.46c-2.53,-2.35 -7.24,-4.89 -14.3,-7.42 -5.97,-2 -15.02,-4.52 -27.14,-7.42 -19.01,-5.25 -41.45,-7.97 -67.34,-7.97 -46.15,1.09 -69.31,21.54 -69.31,61 0,15.2 3.98,30.77 12.12,46.7 7.06,15.57 19.01,26.06 35.48,31.31l241.28 -31.31 38.18 62.09 -218.46 13.76c3.62,0 13.04,2.71 28.06,7.96 16.29,5.24 33.66,12.85 52.12,22.81 18.65,9.59 35.12,23.71 49.24,42.35 14.48,18.83 21.72,40.37 21.72,64.8 0,31.67 -13.03,56.83 -39.28,75.29 -27.14,18.28 -57.92,31.32 -92.12,38.74 -36.21,6.7 -69.51,9.96 -100.28,9.96l186.07 120.37 -179.19 0 -92.31 -123.44c-1.44,0 -10.85,-3.8 -28.59,-11.23 -21.91,-7.78 -38.91,-14.66 -50.87,-20.63zm544.09 37.11l0 -496.3 137.92 0 1.09 441.1 58.83 0 0 55.2 -197.83 0zm461.37 -496.3l0 53.03 -65.16 0c-31.86,0 -47.78,24.44 -47.78,73.13 0,21.18 5.61,37.83 16.46,49.77 10.68,13.22 21.72,19.73 33.49,19.73l62.98 0 0 59.37 -62.98 1.09c-14.12,0 -26.25,8.87 -36.21,26.42 -8.68,17.02 -13.75,38.19 -14.83,63.71 0,31.13 9.05,54.66 27.14,70.41 17.02,16.29 37.65,24.44 62.09,24.44 19.37,-1.45 37.83,-7.97 55.02,-19.56 16.65,-11.4 24.98,-24.07 24.98,-38.18l0 -468.25c0,-14.12 3.62,-28.96 11.04,-44.52 7.78,-16.65 18.28,-29.87 31.32,-39.82 17.01,-13.76 40.54,-20.63 70.59,-20.63l93.39 0 0 58.28 -38.74 0c-8.87,0 -16.83,3.8 -23.89,11.22 -8.15,7.78 -12.13,16.11 -12.13,24.8l0 451.95c0,28.6 -9.41,53.76 -28.24,75.84 -19.72,20.81 -45.25,37.1 -76.38,48.68 -30.41,11.59 -64.26,17.56 -101.72,17.56 -47.06,0 -86.89,-4.35 -119.28,-12.85 -32.22,-7.78 -57.74,-22.99 -76.39,-45.61 -18.09,-21.54 -27.14,-51.59 -27.14,-90.15 0,-27.51 7.96,-50.5 23.89,-68.96 15.92,-17.55 33.3,-30.77 51.94,-39.64 18.83,-8.87 30.78,-13.22 36.2,-13.22 -7.24,0 -19.55,-3.61 -37.11,-10.68 -18.46,-6.7 -35.83,-18.83 -52.12,-36.02 -16.47,-17.74 -24.8,-41.27 -24.8,-70.59 0,-27.52 6.87,-49.24 20.63,-65.16 13.39,-15.57 28.96,-27.69 46.7,-36.2 17.2,-6.34 31.5,-9.41 42.35,-9.41l134.67 0zm642.19 72.57c-4.35,-1.81 -9.22,-3.44 -14.83,-5.24l-23.35 -7.43c-17.38,-5.24 -40.54,-7.96 -69.51,-7.96 -42.35,0 -64.25,21.72 -65.16,65.16 0,19.56 5.07,35.48 15.39,47.78 9.05,11.23 21.54,19.56 37.11,24.98 13.75,5.61 32.03,9.96 55.02,13.22 51.94,8.87 91.76,25.34 119.27,49.78 27.69,25.52 41.45,55.2 41.45,89.05 0,59.73 -22.08,102.63 -66.24,128.33 -44.52,25.89 -98.46,38.74 -161.82,38.74 -45.61,0 -84.34,-6.7 -116.01,-20.09 -33.67,-15.21 -57.93,-29.69 -72.76,-43.45 -17.56,-15.2 -30.05,-28.05 -37.11,-38.18l56.29 -67.34c0,4.53 6.88,15.93 20.63,33.85 14.12,18.47 33.85,35.66 58.83,51.95 24.44,15.93 52.67,23.89 84.89,23.89 31.85,-1.09 56.29,-10.68 73.67,-29.15 17.37,-18.64 26.06,-43.07 26.06,-73.12 0,-27.69 -9.41,-51.41 -28.24,-71.68 -20.09,-19.73 -44.35,-31.32 -72.58,-34.39 -111.68,-16.29 -167.61,-58.1 -167.61,-125.26 0,-32.76 8.69,-58.46 26.06,-76.74 15.93,-18.09 38.37,-30.4 67.33,-37.11 29.69,-5.42 65.89,-8.5 108.6,-9.59 29.5,0 64.26,6.52 104.61,19.55l0 60.46zm1048.9 423.72l0 -281.09 -80.73 0 0 85.43c0,37.11 -9.96,69.14 -30.22,95.92 -20.45,28.24 -47.96,49.6 -82.72,63.71 -33.48,15.21 -70.22,22.81 -110.22,22.81 -73.85,0 -130.15,-14.84 -168.69,-44.52 -36.74,-29.32 -60.28,-60.46 -70.41,-93.39 -9.59,-30.05 -14.3,-56.11 -14.3,-78.02l-54.11 0 0 -59.9 148.96 0c18.1,0 32.4,-8.69 42.89,-25.89 10.32,-18.1 15.39,-36.38 15.39,-55.2 0,-19.37 -5.43,-36.2 -16.47,-50.32 -9.77,-14.48 -23.35,-21.72 -40.72,-21.72l-109.87 0 0 -54.11 177.2 0c34.58,0 63.71,11.94 87.43,36.01 23.35,24.08 35.11,54.85 35.11,92.32 -1.09,59.36 -20.45,97.01 -57.92,112.94 -37.83,17.37 -70.59,25.88 -98.65,25.88 0,12.13 2.54,29.69 7.42,53.04 5.8,25.16 16.65,49.05 32.95,71.68 16.65,23.35 40.9,34.93 72.57,34.93 37.83,-1.09 65.89,-15.93 83.8,-44.52 18.83,-30.05 28.24,-64.44 28.24,-103.35l0 -229.15 120.37 0 0 108.78 82.72 0 0 -158.55 137.74 0 -0.91 440.01 59.91 1.09 0 55.2 -196.74 0zm237.47 0l0 -496.3 137.92 0 1.09 441.1 58.83 0 0 55.2 -197.83 0zm-274.03 -695.22l-1.63 -53.03 193.49 0 209.6 251.96 -120.37 0 -213.76 -198.93 -67.33 0zm656.49 244.54c-28.24,0 -56.48,6.15 -84.89,18.46l0 -64.07c1.81,-0.37 4.7,-0.91 8.5,-1.63l35.66 -5.8c2.72,-0.72 5.61,-1.09 8.33,-1.09 15.93,-1.44 27.87,-2.17 35.66,-2.17 45.26,0 83.99,8.33 116.02,24.98 31.13,17.02 54.48,40.73 70.05,71.5 15.21,30.41 22.81,65.7 22.81,105.52 -1.08,33.3 -8.68,62.81 -22.81,88.69 -14.48,25.33 -35.83,45.79 -64.07,60.99 -29.14,15.57 -63.89,23.71 -104.61,24.8 -28.6,0 -56.84,-7.24 -84.71,-21.72 -28.05,-14.48 -50.86,-30.05 -68.42,-46.7 -17.37,-15.2 -27.51,-25.52 -30.22,-31.31l64.07 -44.53c0,2.9 4.71,11.59 13.76,26.06 10.68,15.21 23.35,28.6 38.19,40.37 15.57,12.31 32.57,18.46 51.03,18.46 51.59,0 77.3,-45.25 77.3,-135.75 -1.09,-20.82 -4.71,-40.37 -11.04,-58.83 -8.15,-19.73 -17.93,-35.3 -29.15,-46.7 -12.13,-13.04 -25.88,-19.55 -41.44,-19.55zm305.52 450.69l0 -496.3 137.92 0 1.09 441.1 58.83 0 0 55.2 -197.83 0zm-274.03 -695.22l-1.63 -53.03 193.49 0 209.6 251.96 -120.37 0 -213.76 -198.93 -67.33 0zm333.58 198.93c-1.44,-0.73 -5.97,-6.16 -13.75,-16.47 -7.43,-9.23 -13.95,-22.44 -19.73,-39.82 -6.7,-16.65 -9.96,-34.39 -9.96,-53.57 0,-90.5 55.93,-135.76 167.96,-135.76 22.63,0 46.71,3.08 72.23,9.06l0 61.53c-13.04,-8.5 -37.11,-12.66 -72.23,-12.66 -19.72,1.09 -34.75,10.31 -45.07,28.05 -10.85,18.46 -16.29,41.45 -16.29,69.5 0,19.01 5.07,38.37 15.39,57.74 9.77,19.19 17.01,29.87 21.72,32.41l-100.28 0zm585.53 199.82l-155.48 0c15.21,4.35 32.41,14.67 51.59,31.32 17.92,15.92 26.97,44.16 26.97,84.88 -1.09,37.11 -17.02,65.71 -47.78,85.8 -32.04,21 -69.69,31.31 -112.95,31.31 -37.46,-1.09 -69.68,-5.97 -97.01,-14.83 -30.05,-10.14 -53.58,-25.89 -70.59,-47.06 -17.56,-21.72 -26.97,-50.5 -28.06,-86.52 0,-41.27 17.02,-75.83 50.87,-103.35 33.3,-26.96 73.31,-40.37 120,-40.37l262.44 1.09 0 57.74zm-145.34 83.8c-1.09,-28.24 -9.41,-48.5 -24.98,-61 -16.47,-14.11 -30.05,-21.72 -40.19,-22.81 -26.61,0 -47.96,6.52 -64.25,19.73 -17.2,13.03 -25.89,40 -25.89,81.09 0,25.52 7.96,43.98 23.71,55.74 15.2,10.86 33.66,17.02 55.2,18.46 25.52,0 44.71,-6.51 57.74,-19.55 12.48,-13.57 18.65,-37.28 18.65,-71.68zm144.79 212.68l0 -496.3 137.92 0 1.09 441.1 58.83 0 0 55.2 -197.83 0zm377.02 -55.2l54.11 0 0 55.2 -192.94 0 0 -534.49c0,-44.52 -5.07,-83.26 -15.39,-116.2 -11.03,-30.41 -32.94,-45.61 -65.7,-45.61 -46.7,1.08 -70.05,32.94 -70.05,95.57 0,13.39 1.26,26.05 3.62,38.18l4.34 24.8 -137.92 0 -2.17 -14.84c-1.63,-13.03 -2.53,-23.35 -2.53,-30.77 0,-42 14.11,-79.28 42.35,-111.86 28.24,-32.57 81.09,-48.68 158.55,-48.68 34.39,0 65.17,6.52 92.32,19.55 28.23,14.84 51.76,33.67 70.59,56.29 19.72,23.17 34.57,49.78 44.52,79.46 10.13,30.41 15.38,61.19 15.38,92.32l0.91 441.1z"/>
     <path class="fil2" d="M20683.83 4994.86c-7.05,0 -21.9,-4.34 -44.52,-13.21 -22.63,-7.43 -43.62,-19.56 -63.17,-36.56 -19.36,-16.3 -29.14,-36.2 -29.14,-59.91 0,-34.93 17.37,-60.63 51.95,-76.93 33.66,-15.2 74.03,-22.81 121.44,-22.81 25.52,0 56.65,2.9 93.39,8.51 35.3,5.61 56.65,10.13 64.08,13.21l-5.25 60.46c-2.53,-2.35 -7.24,-4.89 -14.3,-7.42 -5.97,-2 -15.02,-4.52 -27.14,-7.42 -19.01,-5.25 -41.45,-7.97 -67.34,-7.97 -46.15,1.09 -69.31,21.54 -69.31,61 0,15.2 3.98,30.77 12.12,46.7 7.06,15.57 19.01,26.06 35.48,31.31l241.28 -31.31 38.18 62.09 -218.46 13.76c7.06,0 22.63,4.7 46.7,14.29 26.24,9.23 49.59,23.71 70.59,43.45 22.63,20.27 33.85,46.88 33.85,80.18 -1.09,89.05 -78.19,133.57 -231.68,133.57 -49.59,0 -94.85,-9.41 -135.75,-28.05 -40,-18.83 -70.05,-36.02 -90.15,-51.95l56.65 -68.42c1.45,4.17 10.5,13.58 27.15,28.06 17.56,16.65 38.74,30.77 62.99,42.35 25.16,13.22 50.13,19.72 74.75,19.72 60.82,0 91.22,-29.31 91.22,-88.14 0,-26.06 -5.79,-47.06 -17.37,-62.99 -12.48,-17.01 -24.98,-28.96 -37.65,-36.01 -13.94,-7.78 -21.72,-11.77 -23.89,-11.77l-242.36 39.28 -22.81 -67.33 218.46 -19.73zm-15726.67 297.57l0 -517.65 136.11 0 196.92 340.99 0 -340.99 104.26 0 0 517.65 -117.29 0 -215.75 -368.51 0 368.51 -104.26 0zm548.78 0l0 -517.65 117.29 0 0 211.4 207.79 0 0 -211.4 117.29 0 0 517.65 -117.29 0 0 -213.57 -207.79 0 0 213.57 -117.29 0zm553.13 0l0 -517.65 203.44 0c56.48,0 99.18,11.34 128.15,34.03 28.96,22.69 43.44,56.23 43.44,100.63l0 2.89c0,57.93 -28,94.85 -83.98,110.78 69.02,14 103.53,54.54 103.53,121.62l0 2.9c0,47.3 -15.33,83.25 -45.98,107.87 -30.65,24.61 -75.89,36.92 -135.75,36.92l-212.85 0zm114.39 -81.09l80.36 0c55.99,0 83.99,-24.38 83.99,-73.12l0 -2.9c0,-24.13 -7.12,-42.22 -21.36,-54.29 -14.23,-12.07 -37.05,-18.1 -68.42,-18.1l-74.57 0 0 148.42zm0 -223.71l70.22 0c28,0 48.15,-5.31 60.46,-15.93 12.31,-10.62 18.46,-27.51 18.46,-50.68l0 -2.89c0,-21.72 -6.39,-37.65 -19.18,-47.78 -12.79,-10.13 -32.95,-15.2 -60.46,-15.2l-69.5 0 0 132.49zm5139.84 311.31c-15.92,0 -29.14,-7.78 -39.64,-23.35 -10.5,-15.57 -15.74,-31.32 -15.74,-47.24 0,-22.45 7.6,-40.73 22.81,-54.85 15.2,-14.11 34.39,-21.18 57.55,-21.18 28.24,0 49.96,12.31 65.17,36.92 12.31,20.28 18.09,44.17 17.37,71.68 -1.45,69.5 -25.7,120.19 -72.76,152.04 -26.06,17.37 -49.96,26.06 -71.68,26.06l-27.15 -46.7c11.59,-7.24 29.32,-23.53 53.22,-48.87 7.24,-13.04 10.85,-27.87 10.85,-44.52zm1002.38 -16.11c-36.92,9.96 -66.61,15.02 -89.05,15.02 -44.89,-0.73 -79.64,-13.04 -104.26,-36.74 -18.09,-17.38 -27.15,-34.58 -27.15,-51.95l0 -143.72c-13.75,7.97 -31.13,11.95 -52.12,11.95 -38.38,0 -72.76,-11.22 -103.17,-33.67 -35.48,-25.33 -53.22,-59 -53.22,-101 0,-44.16 16.11,-79.64 48.33,-106.42 32.22,-26.79 74.03,-40.18 125.43,-40.18 47.78,0 88.51,11.58 122.18,34.57 33.66,23.17 50.5,53.22 50.5,89.96l0 243.62c2.89,22.45 15.57,33.67 38.01,33.67 13.04,0 27.87,-9.41 44.52,-28.24l0 113.13zm-216.11 -319.46l0 -46.7c0,-10.14 -4.35,-18.28 -13.03,-24.44 -8.69,-6.15 -18.46,-9.23 -29.32,-9.23 -15.93,0 -28.42,6.15 -37.46,18.46 -9.06,12.31 -13.58,26.06 -13.58,41.27 0,34.04 15.57,51.04 46.7,51.04 8.69,0 19.19,-4.7 31.5,-14.11 10.13,-8.69 15.2,-14.11 15.2,-16.29zm516.94 293.21c-57.93,0 -107.34,-20.63 -148.24,-61.9 -40.91,-41.27 -61.36,-90.87 -61.36,-148.78 0,-57.92 20.63,-107.87 61.91,-149.87 41.27,-41.99 90.5,-62.62 147.7,-61.9 58.64,0.72 107.7,21.9 147.15,63.53 39.46,41.63 59.18,91.04 59.18,148.24 0,57.2 -19.91,106.61 -59.72,148.24 -39.82,41.63 -88.69,62.44 -146.61,62.44zm0 -110.77c23.89,0 41.99,-10.85 54.29,-32.58 10.86,-18.09 16.3,-40.54 16.3,-67.33 0,-27.51 -5.07,-50.68 -15.21,-69.5 -12.31,-22.44 -30.77,-33.67 -55.38,-33.67 -24.62,0 -43.8,10.5 -57.56,31.5 -12.31,18.1 -18.46,40.91 -18.46,68.42 0,27.52 6.15,51.04 18.46,70.59 14.48,21.73 33.67,32.58 57.56,32.58zm496.3 110.77c-57.93,0 -107.34,-20.63 -148.24,-61.9 -40.91,-41.27 -61.36,-90.87 -61.36,-148.78 0,-57.92 20.63,-107.87 61.91,-149.87 41.27,-41.99 90.5,-62.62 147.7,-61.9 58.64,0.72 107.7,21.9 147.15,63.53 39.46,41.63 59.18,91.04 59.18,148.24 0,57.2 -19.91,106.61 -59.72,148.24 -39.82,41.63 -88.69,62.44 -146.61,62.44zm0 -110.77c23.89,0 41.99,-10.85 54.29,-32.58 10.86,-18.09 16.3,-40.54 16.3,-67.33 0,-27.51 -5.07,-50.68 -15.21,-69.5 -12.31,-22.44 -30.77,-33.67 -55.38,-33.67 -24.62,0 -43.8,10.5 -57.56,31.5 -12.31,18.1 -18.46,40.91 -18.46,68.42 0,27.52 6.15,51.04 18.46,70.59 14.48,21.73 33.67,32.58 57.56,32.58zm715.67 -348.6l66.24 0 -368.16 485.43 -68.42 0 370.33 -485.43zm-309.52 23.89c30.41,0 56.3,10.85 77.65,32.57 21.36,21.72 32.04,47.43 32.04,77.11 0,29.68 -10.68,55.39 -32.04,77.11 -21.35,21.72 -47.24,32.57 -77.65,32.57 -30.4,0 -56.47,-10.85 -78.18,-32.57 -21.72,-21.72 -32.58,-47.43 -32.58,-77.11 0,-29.68 10.86,-55.39 32.58,-77.11 21.72,-21.72 47.78,-32.57 78.18,-32.57zm0 55.38c-16.65,0 -29.5,5.61 -38.55,16.84 -9.05,11.22 -13.57,24.07 -13.57,38.55 0,14.48 4.52,27.33 13.57,38.55 9.05,11.23 21.9,16.84 38.55,16.84 16.65,0 29.69,-5.61 39.1,-16.84 9.41,-11.22 14.11,-24.07 14.11,-38.55 0,-14.48 -4.7,-27.33 -14.11,-38.55 -9.41,-11.23 -22.45,-16.84 -39.1,-16.84zm312.77 163.98c30.41,0 56.48,11.04 78.19,33.13 21.72,22.08 32.58,47.96 32.58,77.65 0,31.13 -10.86,57.37 -32.58,78.74 -21.72,21.35 -47.78,32.03 -78.19,32.03 -29.68,0 -55.38,-10.85 -77.1,-32.57 -21.72,-21.72 -32.58,-47.78 -32.58,-78.19 0,-29.69 11.04,-55.57 33.13,-77.65 22.07,-22.08 47.6,-33.13 76.55,-33.13zm0 56.48c-16.65,0 -29.5,5.61 -38.55,16.83 -9.05,11.23 -13.57,24.08 -13.57,38.56 0,14.48 4.52,27.33 13.57,38.55 9.05,11.22 21.9,16.84 38.55,16.84 16.65,0 29.87,-5.62 39.65,-16.84 9.77,-11.22 14.66,-24.07 14.66,-38.55 0,-14.48 -4.89,-27.33 -14.66,-38.56 -9.78,-11.22 -22.99,-16.83 -39.65,-16.83z"/>
    </g>
   </g>
  </g>
 </g>
</svg>
