<?xml version="1.0" encoding="UTF-8"?>
<!DOCTYPE svg PUBLIC "-//W3C//DTD SVG 1.1//EN" "http://www.w3.org/Graphics/SVG/1.1/DTD/svg11.dtd">
<!-- Creator: CorelDRAW 2018 (64-Bit) -->
<svg xmlns="http://www.w3.org/2000/svg" xml:space="preserve" width="8.49138in" height="2.24086in" version="1.1" style="shape-rendering:geometricPrecision; text-rendering:geometricPrecision; image-rendering:optimizeQuality; fill-rule:evenodd; clip-rule:evenodd"
viewBox="0 0 8386.72 2213.24"
 xmlns:xlink="http://www.w3.org/1999/xlink">
 <defs>
  <style type="text/css">
   <![CDATA[
    .fil1 {fill:#FEFEFE}
    .fil2 {fill:#187934;fill-rule:nonzero}
    .fil0 {fill:url(#id0);fill-rule:nonzero}
   ]]>
  </style>
  <linearGradient id="id0" gradientUnits="userSpaceOnUse" x1="4496.98" y1="58.52" x2="4497.05" y2="1351.17">
   <stop offset="0" style="stop-opacity:1; stop-color:#91D439"/>
   <stop offset="1" style="stop-opacity:1; stop-color:#006633"/>
  </linearGradient>
 </defs>
 <g id="Layer_x0020_1">
  <metadata id="CorelCorpID_0Corel-Layer"/>
  <g id="_2116101399840">
   <path class="fil0" d="M337.54 1177.92l479.05 -185.45 -308.55 -112.61 -338.14 137.74 -124.06 -143.46 326.05 -69.03c-11.14,0 -32.45,-6.68 -64.26,-20.36 -34.04,-14.32 -62.98,-34.99 -86.52,-61.4 -25.45,-29.26 -38.17,-62.98 -38.17,-100.84 1.59,-65.21 33.08,-116.11 93.84,-152.69 57.89,-33.72 126.6,-51.85 206.13,-54.08 85.57,0 159.68,17.81 221.71,54.08 63.3,36.58 95.11,88.75 95.11,156.5 0,45.81 -13.36,83.34 -40.08,112.61 -30.54,29.9 -57.89,50.26 -82.07,60.75l-36.26 14c-10.5,3.5 -19.09,6.04 -25.13,7.31l318.73 122.15 0 -502.28 242.07 0 2.87 775.2 106.24 0 0 97.02 -351.18 0 0 -242.39 -450.11 244.3 -147.28 -137.1zm57.89 -544.27c0,39.13 12.09,70.94 36.26,95.11 23.54,24.17 42.63,38.17 56.94,41.99 19.08,-6.36 40.72,-19.72 65.21,-40.08 26.72,-20.68 40.08,-52.17 40.08,-95.11 0,-41.67 -9.23,-73.16 -27.04,-95.11 -20.04,-21.63 -46.13,-32.45 -78.25,-32.45 -28.63,1.91 -51.22,12.72 -67.12,32.45 -15.59,21.31 -24.49,52.17 -26.08,93.2zm1202.73 582.44l95.11 0 0 97.02 -339.09 0 0 -939.34c0,-78.25 -8.91,-146.32 -27.04,-204.22 -19.4,-53.44 -57.89,-80.16 -115.47,-80.16 -82.07,1.91 -123.11,57.89 -123.11,167.96 0,23.54 2.23,45.81 6.37,67.12l7.63 43.58 -242.39 0 -3.81 -26.08c-2.87,-22.9 -4.46,-41.04 -4.46,-54.08 0,-73.8 24.81,-139.33 74.44,-196.59 49.62,-57.26 142.51,-85.57 278.65,-85.57 60.44,0 114.52,11.45 162.23,34.35 49.62,26.08 90.97,59.16 124.06,98.93 34.67,40.72 60.76,87.48 78.25,139.65 17.81,53.44 27.04,107.52 27.04,162.23l1.59 775.2zm656.24 -206.76c0,-76.98 23.22,-139.33 69.03,-186.41 46.76,-48.99 96.06,-84.93 148.23,-107.2 55.35,-21.63 90.34,-32.45 105.29,-32.45 -27.99,-4.46 -58.85,-16.54 -93.2,-36.58 -37.22,-19.08 -55.99,-50.26 -55.99,-93.2 1.91,-53.44 33.4,-87.79 94.16,-103.38 56.62,-14.32 139.33,-22.27 248.12,-24.18 37.22,0 77.93,3.82 121.83,11.14 47.4,8.59 77.93,14.95 91.29,18.77l0 95.75 -71.58 -15.59c-42.31,-7.63 -79.2,-11.45 -111.02,-11.45 -79.52,0 -120.24,23.22 -121.83,69.03 0,25.45 6.68,45.17 20.36,58.85 13.68,14.31 31.81,23.22 54.07,27.04 15.59,4.14 48.35,10.81 98.61,19.4 175.91,26.72 264.02,95.43 264.02,206.13 -1.91,67.75 -28.63,113.88 -80.16,138.69 -49.3,23.86 -116.74,36.58 -202.31,38.17 -34.35,0 -75.39,-5.41 -123.1,-16.54l-62.35 -15.9 0 -102.43c9.22,5.41 26.4,11.13 51.22,16.54 24.81,8.27 50.89,12.09 78.25,12.09 27.99,-2.23 52.17,-12.72 72.84,-30.54 21.63,-18.13 32.45,-36.26 32.45,-54.07 0,-35.95 -10.18,-63.3 -30.86,-82.07 -20.36,-18.13 -53.44,-32.13 -98.61,-41.99l-112.92 -24.18 -23.22 9.23c-14.31,5.09 -29.58,15.9 -45.49,32.76 -16.86,14.31 -30.86,37.54 -41.99,69.98 -11.77,32.76 -17.81,72.21 -17.81,118.33 0,90.66 21.63,159.68 65.21,206.77 44.22,49.62 101.79,74.43 173.36,74.43 67.12,0 124.7,-5.72 172.41,-17.49 50.89,-14.31 90.97,-28.31 120.24,-41.99 27.99,-13.04 41.99,-20.99 41.99,-23.22l0 114.52c-18.77,10.5 -60.76,24.49 -125.97,41.99 -58.85,16.86 -127.55,25.13 -205.81,25.13 -96.38,0 -183.54,-14.63 -261.79,-43.9 -75.39,-28.63 -132.97,-69.34 -173.36,-122.15 -42.31,-51.53 -63.62,-110.7 -63.62,-177.82zm1019.82 303.78l0 -872.23c0,-87.16 17.81,-163.5 53.12,-229.35 33.4,-65.21 84.61,-117.38 152.69,-156.5 68.39,-36.58 147.92,-55.03 238.57,-55.03 136.78,0 248.44,20.99 334.64,63.3 82.71,40.4 142.83,83.66 181,129.47 32.76,42.31 54.4,76.66 65.21,102.75l-202.31 63.3c0,-5.72 -6.68,-21.95 -19.72,-49.3 -10.5,-27.36 -29.26,-58.85 -56.62,-94.16 -29.26,-34.99 -66.16,-63.93 -111.02,-87.79 -44.85,-24.17 -99.25,-36.26 -164.14,-36.26 -92.57,0 -154.28,41.35 -185.45,124.06 -28.95,83.66 -43.58,159.05 -43.58,225.53l1.91 775.2 95.75 0 0 97.02 -340.05 0zm419.57 -777.11l0 -95.11 346.73 0c47.08,0 91.93,11.45 134.24,34.35 43.26,26.72 76.34,58.53 98.61,95.11 24.17,39.13 36.26,83.34 36.26,132.33 0,110.7 -35.63,184.18 -107.2,220.76 -68.71,36.26 -141.24,54.08 -216.94,54.08l61.39 192.13c5.09,20.36 10.5,32.45 16.86,36.26 8.59,5.72 20.68,8.27 36.26,8.27l177.18 0 0 98.93 -368.04 0c-25.77,0 -46.76,-6.36 -63.62,-18.77 -13.68,-12.4 -24.17,-33.4 -31.49,-63.3l-74.76 -253.52 -110.7 0 0 -107.2 318.73 0c29.26,0 56.94,-14.95 83.66,-45.49 26.08,-27.99 40.08,-68.07 41.99,-120.24 0,-46.13 -12.72,-85.57 -38.17,-118.33 -24.81,-33.72 -57.26,-50.26 -97.02,-50.26l-243.98 0zm1979.52 256.07l-273.25 0c26.72,7.63 56.94,25.77 90.66,55.03 31.49,27.99 47.4,77.62 47.4,149.19 -1.91,65.21 -29.9,115.47 -83.98,150.78 -56.3,36.9 -122.47,55.03 -198.49,55.03 -65.85,-1.91 -122.47,-10.5 -170.5,-26.08 -52.81,-17.81 -94.16,-45.49 -124.06,-82.7 -30.86,-38.17 -47.4,-88.75 -49.31,-152.05 0,-72.53 29.9,-133.29 89.38,-181.63 58.53,-47.4 128.83,-70.94 210.9,-70.94l461.24 1.91 0 101.47zm-255.43 147.28c-1.91,-49.62 -16.54,-85.25 -43.9,-107.2 -28.95,-24.81 -52.81,-38.17 -70.62,-40.08 -46.76,0 -84.29,11.45 -112.92,34.67 -30.22,22.9 -45.49,70.3 -45.49,142.51 0,44.85 14,77.3 41.67,97.97 26.72,19.08 59.17,29.9 97.02,32.45 44.85,0 78.57,-11.45 101.47,-34.35 21.95,-23.86 32.76,-65.53 32.76,-125.97zm254.48 373.76l0 -872.23 242.39 0 1.91 775.2 103.38 0 0 97.02 -347.68 0zm1119.39 -448.2l-189.27 0c-16.22,26.72 -44.53,48.67 -85.57,66.16 -49.31,21.63 -95.43,32.45 -139.01,32.45l51.22 208.04c1.91,18.45 7.63,30.54 16.86,36.26 8.59,5.73 20.99,8.27 36.26,8.27l181.95 0 0 97.02 -368.36 0c-26.08,0 -47.08,-6.36 -63.3,-18.77 -12.4,-9.22 -22.58,-30.22 -30.86,-63.3l-67.76 -267.52 -101.79 0 0 -106.24 282.47 0c29.26,0 53.44,-16.54 72.84,-50.26 17.81,-33.4 26.72,-71.57 26.72,-114.52 0,-37.85 -10.18,-73.48 -30.54,-106.24 -21.31,-34.99 -48.67,-52.17 -82.07,-52.17l-196.59 0 0 -93.2 318.73 0c66.48,0 124.06,27.36 173.36,82.07 34.67,35.95 52.17,95.11 52.17,177.82l-2.86 49.31 145.37 0 0 114.83zm-0 448.2l0 -872.23 242.39 0 1.91 775.2 103.38 0 0 97.02 -347.68 0zm85.89 -872.23c-2.55,-1.27 -10.5,-10.81 -24.18,-28.95 -13.04,-16.22 -24.49,-39.44 -34.67,-69.98 -11.77,-29.26 -17.5,-60.44 -17.5,-94.16 0,-159.05 98.29,-238.57 295.2,-238.57 39.76,0 82.07,5.4 126.92,15.9l0 108.15c-22.9,-14.95 -65.21,-22.27 -126.92,-22.27 -34.67,1.91 -61.08,18.13 -79.21,49.31 -19.08,32.45 -28.63,72.84 -28.63,122.15 0,33.4 8.9,67.44 27.04,101.47 17.18,33.72 29.9,52.49 38.17,56.94l-176.23 0zm352.45 95.11l0 -95.11 346.73 0c47.08,0 91.93,11.45 134.24,34.35 43.26,26.72 76.34,58.53 98.61,95.11 24.17,39.13 36.26,83.34 36.26,132.33 0,110.7 -35.63,184.18 -107.2,220.76 -68.71,36.26 -141.24,54.08 -216.94,54.08l61.39 192.13c5.09,20.36 10.5,32.45 16.86,36.26 8.59,5.72 20.68,8.27 36.26,8.27l177.18 0 0 98.93 -368.04 0c-25.77,0 -46.76,-6.36 -63.62,-18.77 -13.68,-12.4 -24.17,-33.4 -31.49,-63.3l-74.76 -253.52 -110.7 0 0 -107.2 318.73 0c29.26,0 56.94,-14.95 83.66,-45.49 26.08,-27.99 40.08,-68.07 41.99,-120.24 0,-46.13 -12.72,-85.57 -38.17,-118.33 -24.81,-33.72 -57.26,-50.26 -97.02,-50.26l-243.98 0zm1015.69 680.09l95.11 0 0 97.02 -339.09 0 0 -939.34c0,-78.25 -8.91,-146.32 -27.04,-204.22 -19.4,-53.44 -57.89,-80.16 -115.47,-80.16 -82.07,1.91 -123.11,57.89 -123.11,167.96 0,23.54 2.23,45.81 6.37,67.12l7.63 43.58 -242.39 0 -3.81 -26.08c-2.87,-22.9 -4.46,-41.04 -4.46,-54.08 0,-73.8 24.81,-139.33 74.44,-196.59 49.62,-57.26 142.51,-85.57 278.65,-85.57 60.44,0 114.52,11.45 162.23,34.35 49.62,26.08 90.97,59.16 124.06,98.93 34.67,40.72 60.76,87.48 78.25,139.65 17.81,53.44 27.04,107.52 27.04,162.23l1.59 775.2z"/>
   <g>
    <polygon class="fil1" points="-0,1717.15 8386.72,1717.15 8386.72,2213.24 -0,2213.24 "/>
    <g>
     <path class="fil2" d="M173.36 1905.77c-9.48,0 -21.17,3.56 -35.06,10.62l-11.9 -24.8 19.24 -4.63 11.47 -2.07c7.2,-1.28 15.75,-1.85 25.65,-1.85 20.17,0.35 37.98,4.85 53.44,13.33 14.61,8.05 21.95,20.17 21.95,36.34 0,11.68 -3.14,20.66 -9.41,26.94 -6.7,6.91 -13.47,11.68 -20.24,14.18 -7.27,2.49 -11.9,3.78 -14.04,3.78 3.35,0 8.91,1.43 16.75,4.35 8.76,3.21 16.67,8.12 23.8,14.82 7.77,7.27 11.69,17.1 11.69,29.64 0,21.02 -7.91,36.42 -23.59,46.18 -15.89,10.12 -34.84,15.25 -57.01,15.25 -16.82,0 -32.35,-2.42 -46.53,-7.12 -13.54,-4.71 -23.23,-8.91 -29.07,-12.54l16.32 -26.94c5.56,4.78 13.18,9.62 22.95,14.61 10.76,5.98 21.45,8.98 32.14,8.98 9.9,-0.43 18.17,-3.49 24.87,-9.41 6.84,-5.98 10.26,-15.18 10.26,-27.72 0,-12.4 -4.13,-21.38 -12.33,-26.94 -8.62,-5.84 -19.1,-8.98 -31.35,-9.41 -12.9,0 -22.45,0.71 -28.58,2.06l0 -28.57c0.86,0.43 4.35,0.86 10.62,1.28 6.41,0.78 11.97,1.21 16.74,1.21 25.3,-1.21 37.98,-11.19 37.98,-29.86 0,-9.76 -3.71,-17.46 -11.04,-23.16 -7.56,-5.7 -16.11,-8.55 -25.73,-8.55zm415.66 77.46l-42.4 0c-3.64,5.98 -9.98,10.9 -19.17,14.82 -11.04,4.85 -21.37,7.27 -31.14,7.27l11.47 46.6c0.42,4.13 1.71,6.84 3.78,8.12 1.92,1.28 4.7,1.85 8.12,1.85l40.76 0 0 21.73 -82.52 0c-5.84,0 -10.55,-1.43 -14.18,-4.2 -2.78,-2.07 -5.06,-6.77 -6.91,-14.18l-15.18 -59.93 -22.8 0 0 -23.8 63.28 0c6.56,0 11.97,-3.71 16.32,-11.26 3.99,-7.49 5.98,-16.04 5.98,-25.66 0,-8.48 -2.28,-16.46 -6.84,-23.8 -4.78,-7.84 -10.9,-11.68 -18.38,-11.68l-44.04 0 0 -20.88 71.4 0c14.89,0 27.79,6.13 38.84,18.38 7.77,8.05 11.68,21.3 11.68,39.83l-0.64 11.04 32.57 0 0 25.73zm17.32 -92.92c1.43,-0.28 3.35,-0.64 5.84,-1.07l12.11 -1.85c11.4,-1.36 20.52,-2.07 27.37,-2.07 23.37,0.43 42.04,4.06 55.94,11.05 14.61,7.27 21.95,18.95 21.95,35.06 0,8.12 -2.21,14.89 -6.49,20.45 -3.78,5.06 -10.48,10.04 -20.03,15.03 -7.84,4.06 -20.38,8.91 -37.62,14.61 -9.19,2.57 -16.03,7.77 -20.66,15.68 -5.13,7.77 -7.7,16.74 -7.7,26.94 0.57,11.26 3.99,21.02 10.4,29.22 6.56,8.19 14.89,12.33 25.08,12.33 10.97,0 21.02,-2.14 30.07,-6.49 8.62,-3.63 15.82,-8.12 21.66,-13.54 5.56,-4.78 8.55,-7.77 8.98,-8.98l19.67 22.52 -15.68 11.26c-8.05,4.63 -17.67,8.69 -28.79,12.33 -12.82,3.92 -26.29,5.84 -40.55,5.84 -15.82,0 -30.36,-2.07 -43.61,-6.27 -12.68,-3.71 -23.51,-10.69 -32.56,-20.88 -8.2,-9.98 -12.33,-22.88 -12.33,-38.62 0,-26.44 21.52,-45.75 64.49,-58 22.3,-6.41 33.42,-17.39 33.42,-32.99 -0.43,-7.77 -2.99,-14.04 -7.7,-18.81 -4.99,-4.56 -11.97,-6.84 -20.88,-6.84 -7.12,0 -15.82,1.85 -26.08,5.63 -10.9,3.92 -16.32,5.99 -16.32,6.27l0 -27.79zm169.95 193.33l0 -195.39 54.3 0 0.43 173.66 23.16 0 0 21.73 -77.89 0zm93.99 -174.09l0 -21.3 77.67 0c10.55,0 20.59,2.56 30.07,7.7 9.69,5.98 17.1,13.11 22.09,21.3 5.42,8.76 8.12,18.67 8.12,29.65 0,24.8 -7.98,41.26 -24.02,49.45 -15.39,8.12 -31.64,12.11 -48.6,12.11l13.75 43.04c1.14,4.56 2.35,7.27 3.78,8.12 1.92,1.28 4.63,1.85 8.12,1.85l39.69 0 0 22.16 -82.45 0c-5.77,0 -10.48,-1.43 -14.25,-4.2 -3.06,-2.78 -5.42,-7.48 -7.06,-14.18l-16.74 -56.8 -24.8 0 0 -24.02 71.4 0c6.56,0 12.75,-3.35 18.74,-10.19 5.84,-6.27 8.98,-15.25 9.41,-26.94 0,-10.34 -2.85,-19.17 -8.55,-26.51 -5.56,-7.55 -12.82,-11.26 -21.73,-11.26l-54.66 0zm291.88 0l0 -21.3 77.67 0c10.55,0 20.59,2.56 30.07,7.7 9.69,5.98 17.1,13.11 22.09,21.3 5.42,8.76 8.12,18.67 8.12,29.65 0,24.8 -7.98,41.26 -24.02,49.45 -15.39,8.12 -31.64,12.11 -48.6,12.11l13.75 43.04c1.14,4.56 2.35,7.27 3.78,8.12 1.92,1.28 4.63,1.85 8.12,1.85l39.69 0 0 22.16 -82.45 0c-5.77,0 -10.48,-1.43 -14.25,-4.2 -3.06,-2.78 -5.42,-7.48 -7.06,-14.18l-16.74 -56.8 -24.8 0 0 -24.02 71.4 0c6.56,0 12.75,-3.35 18.74,-10.19 5.84,-6.27 8.98,-15.25 9.41,-26.94 0,-10.34 -2.85,-19.17 -8.55,-26.51 -5.56,-7.55 -12.82,-11.26 -21.73,-11.26l-54.66 0zm-28.79 -99.62l-0.64 -20.88 76.18 0 82.52 99.2 -47.39 0 -84.16 -78.32 -26.51 0zm222.97 80.38c1.43,-0.28 3.35,-0.64 5.84,-1.07l12.11 -1.85c11.4,-1.36 20.52,-2.07 27.37,-2.07 23.37,0.43 42.04,4.06 55.94,11.05 14.61,7.27 21.95,18.95 21.95,35.06 0,8.12 -2.21,14.89 -6.49,20.45 -3.78,5.06 -10.48,10.04 -20.03,15.03 -7.84,4.06 -20.38,8.91 -37.62,14.61 -9.19,2.57 -16.03,7.77 -20.66,15.68 -5.13,7.77 -7.7,16.74 -7.7,26.94 0.57,11.26 3.99,21.02 10.4,29.22 6.56,8.19 14.89,12.33 25.08,12.33 10.97,0 21.02,-2.14 30.07,-6.49 8.62,-3.63 15.82,-8.12 21.66,-13.54 5.56,-4.78 8.55,-7.77 8.98,-8.98l19.67 22.52 -15.68 11.26c-8.05,4.63 -17.67,8.69 -28.79,12.33 -12.82,3.92 -26.29,5.84 -40.55,5.84 -15.82,0 -30.36,-2.07 -43.61,-6.27 -12.68,-3.71 -23.51,-10.69 -32.56,-20.88 -8.2,-9.98 -12.33,-22.88 -12.33,-38.62 0,-26.44 21.52,-45.75 64.49,-58 22.3,-6.41 33.42,-17.39 33.42,-32.99 -0.43,-7.77 -2.99,-14.04 -7.7,-18.81 -4.99,-4.56 -11.97,-6.84 -20.88,-6.84 -7.12,0 -15.82,1.85 -26.08,5.63 -10.9,3.92 -16.32,5.99 -16.32,6.27l0 -27.79zm-31.5 -80.38l-0.64 -20.88 76.18 0 82.52 99.2 -47.39 0 -84.16 -78.32 -26.51 0zm334.28 106.89c-1.71,-0.71 -3.63,-1.35 -5.84,-2.06l-9.19 -2.92c-6.84,-2.06 -15.96,-3.13 -27.37,-3.13 -16.67,0 -25.29,8.55 -25.65,25.65 0,7.7 1.99,13.97 6.06,18.81 3.56,4.42 8.48,7.7 14.61,9.83 5.41,2.21 12.61,3.92 21.66,5.2 20.45,3.49 36.13,9.98 46.96,19.6 10.9,10.05 16.32,21.73 16.32,35.06 0,23.52 -8.69,40.41 -26.08,50.52 -17.53,10.19 -38.76,15.25 -63.71,15.25 -17.96,0 -33.2,-2.64 -45.67,-7.91 -13.26,-5.99 -22.81,-11.69 -28.65,-17.11 -6.91,-5.98 -11.83,-11.04 -14.61,-15.03l22.16 -26.51c0,1.78 2.71,6.27 8.12,13.33 5.56,7.27 13.33,14.04 23.16,20.45 9.62,6.27 20.74,9.41 33.42,9.41 12.54,-0.43 22.16,-4.2 29,-11.47 6.84,-7.34 10.26,-16.96 10.26,-28.79 0,-10.9 -3.71,-20.24 -11.12,-28.22 -7.91,-7.77 -17.46,-12.33 -28.58,-13.54 -43.97,-6.41 -65.99,-22.88 -65.99,-49.31 0,-12.9 3.42,-23.02 10.26,-30.21 6.27,-7.12 15.11,-11.97 26.51,-14.61 11.69,-2.13 25.94,-3.35 42.76,-3.78 11.61,0 25.3,2.57 41.19,7.7l0 23.8zm96.41 186.85c2.78,-4.85 4.21,-10.83 4.21,-17.96 -3.78,0 -9.41,-1.92 -16.89,-5.84 -7.27,-3.85 -10.9,-10.9 -10.9,-21.1 0,-8.9 2.99,-16.1 8.98,-21.66 6.13,-5.7 13.75,-8.55 22.73,-8.55 11.47,0.36 19.74,4.63 24.87,12.68 5.13,8.62 7.77,18.53 7.77,29.65 -0.57,19.52 -4.92,34.42 -12.97,44.68 -8.05,10.62 -16.53,17.39 -25.3,20.45 -8.91,3.21 -15.04,4.85 -18.31,4.85l-10.69 -18.38c2.5,-1.14 7.13,-3.57 13.82,-7.34 5.42,-2.92 9.62,-6.7 12.68,-11.47zm1098.74 -120.43l-42.4 0c-3.64,5.98 -9.98,10.9 -19.17,14.82 -11.04,4.85 -21.37,7.27 -31.14,7.27l11.47 46.6c0.42,4.13 1.71,6.84 3.78,8.12 1.92,1.28 4.7,1.85 8.12,1.85l40.76 0 0 21.73 -82.52 0c-5.84,0 -10.55,-1.43 -14.18,-4.2 -2.78,-2.07 -5.06,-6.77 -6.91,-14.18l-15.18 -59.93 -22.8 0 0 -23.8 63.28 0c6.56,0 11.97,-3.71 16.32,-11.26 3.99,-7.49 5.98,-16.04 5.98,-25.66 0,-8.48 -2.28,-16.46 -6.84,-23.8 -4.78,-7.84 -10.9,-11.68 -18.38,-11.68l-44.04 0 0 -20.88 71.4 0c14.89,0 27.79,6.13 38.84,18.38 7.77,8.05 11.68,21.3 11.68,39.83l-0.64 11.04 32.57 0 0 25.73zm0 100.4l0 -195.39 54.3 0 0.43 173.66 23.16 0 0 21.73 -77.89 0zm93.99 -174.09l0 -21.3 77.67 0c10.55,0 20.59,2.56 30.07,7.7 9.69,5.98 17.1,13.11 22.09,21.3 5.42,8.76 8.12,18.67 8.12,29.65 0,24.8 -7.98,41.26 -24.02,49.45 -15.39,8.12 -31.64,12.11 -48.6,12.11l13.75 43.04c1.14,4.56 2.35,7.27 3.78,8.12 1.92,1.28 4.63,1.85 8.12,1.85l39.69 0 0 22.16 -82.45 0c-5.77,0 -10.48,-1.43 -14.25,-4.2 -3.06,-2.78 -5.42,-7.48 -7.06,-14.18l-16.74 -56.8 -24.8 0 0 -24.02 71.4 0c6.56,0 12.75,-3.35 18.74,-10.19 5.84,-6.27 8.98,-15.25 9.41,-26.94 0,-10.34 -2.85,-19.17 -8.55,-26.51 -5.56,-7.55 -12.82,-11.26 -21.73,-11.26l-54.66 0zm240.71 56.94c-2.78,0 -8.62,-1.71 -17.53,-5.2 -8.91,-2.92 -17.17,-7.7 -24.87,-14.4 -7.62,-6.42 -11.47,-14.25 -11.47,-23.59 0,-13.75 6.84,-23.87 20.45,-30.29 13.25,-5.98 29.14,-8.98 47.81,-8.98 10.05,0 22.3,1.14 36.77,3.35 13.9,2.21 22.3,3.99 25.23,5.2l-2.07 23.8c-1,-0.93 -2.85,-1.92 -5.63,-2.92 -2.35,-0.79 -5.91,-1.78 -10.69,-2.92 -7.49,-2.07 -16.32,-3.14 -26.51,-3.14 -18.17,0.43 -27.29,8.48 -27.29,24.02 0,5.98 1.57,12.11 4.77,18.38 2.78,6.13 7.49,10.26 13.97,12.33l94.99 -12.33 15.03 24.44 -86.01 5.42c2.78,0 8.91,1.85 18.38,5.63 10.33,3.64 19.52,9.34 27.79,17.11 8.91,7.98 13.33,18.45 13.33,31.57 -0.43,35.06 -30.79,52.59 -91.21,52.59 -19.52,0 -37.34,-3.71 -53.44,-11.04 -15.75,-7.41 -27.58,-14.18 -35.49,-20.45l22.3 -26.94c0.57,1.64 4.13,5.35 10.69,11.05 6.91,6.56 15.25,12.11 24.8,16.67 9.9,5.2 19.74,7.77 29.43,7.77 23.95,0 35.91,-11.54 35.91,-34.7 0,-10.26 -2.28,-18.53 -6.84,-24.8 -4.92,-6.7 -9.83,-11.4 -14.82,-14.18 -5.49,-3.06 -8.55,-4.64 -9.41,-4.64l-95.42 15.46 -8.98 -26.51 86.01 -7.77zm164.54 117.15l0 -195.39 54.3 0 0.43 173.66 23.16 0 0 21.73 -77.89 0zm93.99 -174.09l0 -21.3 77.67 0c10.55,0 20.59,2.56 30.07,7.7 9.69,5.98 17.1,13.11 22.09,21.3 5.42,8.76 8.12,18.67 8.12,29.65 0,24.8 -7.98,41.26 -24.02,49.45 -15.39,8.12 -31.64,12.11 -48.6,12.11l13.75 43.04c1.14,4.56 2.35,7.27 3.78,8.12 1.92,1.28 4.63,1.85 8.12,1.85l39.69 0 0 22.16 -82.45 0c-5.77,0 -10.48,-1.43 -14.25,-4.2 -3.06,-2.78 -5.42,-7.48 -7.06,-14.18l-16.74 -56.8 -24.8 0 0 -24.02 71.4 0c6.56,0 12.75,-3.35 18.74,-10.19 5.84,-6.27 8.98,-15.25 9.41,-26.94 0,-10.34 -2.85,-19.17 -8.55,-26.51 -5.56,-7.55 -12.82,-11.26 -21.73,-11.26l-54.66 0zm365.35 84.3l0 12.33c0,6.27 -3.64,12.11 -10.83,17.53 -6.84,5.27 -16.25,8.12 -28.22,8.55 -12.54,0 -22.3,-3.56 -29.43,-10.62 -7.05,-6.7 -10.62,-14.4 -10.62,-23.16 0.43,-13.26 4.21,-21.74 11.47,-25.51 7.48,-3.99 13.61,-6.06 18.38,-6.06l0 -40.05 0.36 -7.77c0,-3.71 -0.79,-6.91 -2.5,-9.55 -0.78,-1.71 -3.49,-2.57 -8.12,-2.57 -4.56,0 -9.9,0.86 -15.89,2.57 -5.56,1.64 -8.69,2.85 -9.33,3.49l0 -24.8c1.21,-2 11.04,-2.92 29.43,-2.92 24.23,0 39.55,2.85 46.11,8.55 6.13,5.56 9.19,14.11 9.19,25.66l0 47.39 48.67 0 0 26.94 -48.67 0zm41.33 89.79l0 -195.39 54.3 0 0.43 173.66 23.16 0 0 21.73 -77.89 0zm93.56 0l0 -195.39 54.3 0 0.43 173.66 23.16 0 0 21.73 -77.89 0zm245.56 -116.72l-61.21 0c5.99,1.71 12.76,5.77 20.31,12.33 7.05,6.27 10.62,17.39 10.62,33.42 -0.43,14.61 -6.7,25.87 -18.81,33.78 -12.61,8.27 -27.44,12.33 -44.47,12.33 -14.75,-0.43 -27.43,-2.35 -38.19,-5.84 -11.83,-3.99 -21.1,-10.19 -27.79,-18.53 -6.91,-8.55 -10.62,-19.88 -11.05,-34.06 0,-16.25 6.7,-29.86 20.03,-40.69 13.11,-10.62 28.86,-15.89 47.25,-15.89l103.32 0.43 0 22.73zm-57.22 32.99c-0.43,-11.12 -3.71,-19.1 -9.83,-24.02 -6.49,-5.56 -11.83,-8.55 -15.82,-8.98 -10.48,0 -18.88,2.57 -25.29,7.77 -6.77,5.13 -10.19,15.75 -10.19,31.92 0,10.05 3.13,17.32 9.34,21.95 5.98,4.28 13.25,6.7 21.73,7.27 10.05,0 17.6,-2.56 22.73,-7.7 4.92,-5.34 7.34,-14.68 7.34,-28.22zm199.17 40.55c-16.82,11.4 -34.63,17.1 -53.44,17.1 -16.11,0 -32.07,-2.85 -47.82,-8.55 -15.46,-5.49 -28.07,-14.04 -37.98,-25.73 -10.05,-11.26 -15.04,-24.73 -15.04,-40.48 0,-4.49 1.99,-8.05 6.05,-10.83 4.42,-2.28 9.27,-3.35 14.4,-3.35l38.2 0c7.27,0 12.9,-2.71 16.96,-8.19 4.28,-5.56 6.42,-12.47 6.42,-20.88 0,-9.12 -1.78,-16.46 -5.42,-21.88 -3.99,-5.7 -9.34,-8.55 -15.82,-8.55l-45.32 0 0 -20.88 66.99 0c8.9,0 17.32,1.99 25.29,6.05 7.63,3.71 13.61,9.34 17.96,16.68 4.56,7.41 6.84,16.25 6.84,26.51 -0.79,32.85 -17.1,49.88 -48.81,51.16 -1.92,0 -5.77,-0.29 -11.47,-0.86l-9.41 -0.79c-4.35,0 -6.48,1.99 -6.48,5.99 0,5.49 1.49,11.04 4.42,16.74 2.35,5.84 6.84,11.26 13.54,16.25 6.27,4.49 14.68,6.7 25.22,6.7 12.68,-0.43 24.51,-3.28 35.56,-8.55 10.55,-4.56 16.96,-8.69 19.17,-12.33l0 28.65zm-0.43 43.18l0 -195.39 54.3 0 0.43 173.66 23.16 0 0 21.73 -77.89 0zm1476.5 -100.4l-42.4 0c-3.64,5.98 -9.98,10.9 -19.17,14.82 -11.04,4.85 -21.37,7.27 -31.14,7.27l11.47 46.6c0.42,4.13 1.71,6.84 3.78,8.12 1.92,1.28 4.7,1.85 8.12,1.85l40.76 0 0 21.73 -82.52 0c-5.84,0 -10.55,-1.43 -14.18,-4.2 -2.78,-2.07 -5.06,-6.77 -6.91,-14.18l-15.18 -59.93 -22.8 0 0 -23.8 63.28 0c6.56,0 11.97,-3.71 16.32,-11.26 3.99,-7.49 5.98,-16.04 5.98,-25.66 0,-8.48 -2.28,-16.46 -6.84,-23.8 -4.78,-7.84 -10.9,-11.68 -18.38,-11.68l-44.04 0 0 -20.88 71.4 0c14.89,0 27.79,6.13 38.84,18.38 7.77,8.05 11.68,21.3 11.68,39.83l-0.64 11.04 32.57 0 0 25.73zm0 100.4l0 -195.39 54.3 0 0.43 173.66 23.16 0 0 21.73 -77.89 0zm110.88 -193.33c1.43,-0.28 3.35,-0.64 5.84,-1.07l12.11 -1.85c11.4,-1.36 20.52,-2.07 27.37,-2.07 23.37,0.43 42.04,4.06 55.94,11.05 14.61,7.27 21.95,18.95 21.95,35.06 0,8.12 -2.21,14.89 -6.49,20.45 -3.78,5.06 -10.48,10.04 -20.03,15.03 -7.84,4.06 -20.38,8.91 -37.62,14.61 -9.19,2.57 -16.03,7.77 -20.66,15.68 -5.13,7.77 -7.7,16.74 -7.7,26.94 0.57,11.26 3.99,21.02 10.4,29.22 6.56,8.19 14.89,12.33 25.08,12.33 10.97,0 21.02,-2.14 30.07,-6.49 8.62,-3.63 15.82,-8.12 21.66,-13.54 5.56,-4.78 8.55,-7.77 8.98,-8.98l19.67 22.52 -15.68 11.26c-8.05,4.63 -17.67,8.69 -28.79,12.33 -12.82,3.92 -26.29,5.84 -40.55,5.84 -15.82,0 -30.36,-2.07 -43.61,-6.27 -12.68,-3.71 -23.51,-10.69 -32.56,-20.88 -8.2,-9.98 -12.33,-22.88 -12.33,-38.62 0,-26.44 21.52,-45.75 64.49,-58 22.3,-6.41 33.42,-17.39 33.42,-32.99 -0.43,-7.77 -2.99,-14.04 -7.7,-18.81 -4.99,-4.56 -11.97,-6.84 -20.88,-6.84 -7.12,0 -15.82,1.85 -26.08,5.63 -10.9,3.92 -16.32,5.99 -16.32,6.27l0 -27.79zm224.82 171.59l21.3 0 0 21.73 -75.96 0 0 -210.43c0,-17.53 -1.99,-32.78 -6.06,-45.75 -4.34,-11.97 -12.97,-17.96 -25.87,-17.96 -18.38,0.42 -27.58,12.97 -27.58,37.62 0,5.27 0.5,10.26 1.43,15.03l1.71 9.76 -54.3 0 -0.86 -5.84c-0.64,-5.13 -1,-9.19 -1,-12.11 0,-16.53 5.56,-31.21 16.67,-44.04 11.12,-12.82 31.92,-19.17 62.42,-19.17 13.54,0 25.66,2.57 36.35,7.7 11.11,5.84 20.38,13.26 27.79,22.16 7.77,9.12 13.61,19.6 17.53,31.28 3.99,11.97 6.05,24.09 6.05,36.35l0.36 173.66zm-35.63 -173.66c-0.57,-0.29 -2.35,-2.43 -5.41,-6.49 -2.92,-3.64 -5.49,-8.83 -7.77,-15.68 -2.64,-6.56 -3.92,-13.54 -3.92,-21.09 0,-35.63 22.02,-53.45 66.13,-53.45 8.91,0 18.39,1.21 28.44,3.57l0 24.23c-5.13,-3.35 -14.61,-4.99 -28.44,-4.99 -7.77,0.43 -13.68,4.06 -17.74,11.04 -4.27,7.27 -6.41,16.32 -6.41,27.36 0,7.49 1.99,15.11 6.06,22.73 3.85,7.56 6.7,11.76 8.55,12.76l-39.48 0zm96.91 180.78c-1.42,-0.71 -2.49,-1.28 -3.35,-1.71 -1.28,-0.64 -2.42,-1.28 -3.56,-1.85 -2.92,-1.5 -5.63,-3.21 -8.13,-4.99 -5.27,-3.64 -8.26,-5.42 -8.98,-5.42l22.3 -26.94c0.57,1.64 4.13,5.35 10.69,11.05 6.91,6.56 15.25,12.11 24.8,16.67 9.9,5.2 19.74,7.77 29.43,7.77 23.95,0 35.91,-11.54 35.91,-34.7 0,-10.26 -2.28,-18.53 -6.84,-24.8 -4.92,-6.7 -9.83,-11.4 -14.82,-14.18 -5.49,-3.06 -8.55,-4.64 -9.41,-4.64l-95.42 15.46 -8.98 -26.51 86.01 -7.77c-2.78,0 -8.62,-1.71 -17.53,-5.2 -8.91,-2.92 -17.17,-7.7 -24.87,-14.4 -7.62,-6.42 -11.47,-14.25 -11.47,-23.59 0,-13.75 6.84,-23.87 20.45,-30.29 13.25,-5.98 29.14,-8.98 47.81,-8.98 10.05,0 22.3,1.14 36.77,3.35 13.9,2.21 22.3,3.99 25.23,5.2l-2.07 23.8c-1,-0.93 -2.85,-1.92 -5.63,-2.92 -2.35,-0.79 -5.91,-1.78 -10.69,-2.92 -7.49,-2.07 -16.32,-3.14 -26.51,-3.14 -18.17,0.43 -27.29,8.48 -27.29,24.02 0,5.98 1.57,12.11 4.77,18.38 2.78,6.13 7.49,10.26 13.97,12.33l94.99 -12.33 15.03 24.44 -86.01 5.42c1.43,0 5.13,1.07 11.05,3.13 6.41,2.06 13.25,5.06 20.52,8.98 7.34,3.78 13.83,9.34 19.38,16.67 5.7,7.41 8.55,15.89 8.55,25.51 0,12.47 -5.13,22.37 -15.46,29.64 -10.69,7.2 -22.8,12.33 -36.27,15.25 -14.26,2.64 -27.37,3.92 -39.48,3.92l73.26 47.39 -70.55 0 -36.34 -48.6c-0.57,0 -4.27,-1.5 -11.26,-4.42 -8.62,-3.06 -15.32,-5.77 -20.03,-8.12zm214.21 14.61l0 -195.39 54.3 0 0.43 173.66 23.16 0 0 21.73 -77.89 0zm181.64 -195.39l0 20.88 -25.65 0c-12.54,0 -18.81,9.62 -18.81,28.79 0,8.34 2.21,14.89 6.48,19.59 4.2,5.2 8.55,7.77 13.19,7.77l24.8 0 0 23.37 -24.8 0.43c-5.56,0 -10.34,3.49 -14.26,10.4 -3.42,6.7 -5.41,15.04 -5.84,25.08 0,12.26 3.56,21.52 10.69,27.72 6.7,6.41 14.82,9.62 24.44,9.62 7.63,-0.57 14.89,-3.14 21.66,-7.7 6.56,-4.49 9.83,-9.48 9.83,-15.03l0 -184.35c0,-5.56 1.43,-11.4 4.35,-17.53 3.06,-6.56 7.2,-11.76 12.33,-15.68 6.7,-5.42 15.96,-8.12 27.79,-8.12l36.77 0 0 22.95 -15.25 0c-3.49,0 -6.63,1.5 -9.41,4.42 -3.21,3.06 -4.78,6.34 -4.78,9.76l0 177.93c0,11.26 -3.71,21.17 -11.12,29.86 -7.77,8.19 -17.81,14.61 -30.07,19.17 -11.97,4.56 -25.3,6.91 -40.05,6.91 -18.53,0 -34.21,-1.71 -46.96,-5.06 -12.68,-3.06 -22.73,-9.05 -30.07,-17.96 -7.12,-8.48 -10.69,-20.31 -10.69,-35.49 0,-10.83 3.13,-19.88 9.41,-27.15 6.27,-6.91 13.11,-12.11 20.45,-15.6 7.41,-3.49 12.12,-5.2 14.25,-5.2 -2.85,0 -7.7,-1.42 -14.61,-4.2 -7.27,-2.64 -14.11,-7.41 -20.52,-14.18 -6.49,-6.98 -9.76,-16.25 -9.76,-27.79 0,-10.83 2.71,-19.38 8.12,-25.65 5.27,-6.13 11.4,-10.9 18.38,-14.25 6.77,-2.5 12.4,-3.71 16.67,-3.71l53.02 0zm252.83 28.57c-1.71,-0.71 -3.63,-1.35 -5.84,-2.06l-9.19 -2.92c-6.84,-2.06 -15.96,-3.13 -27.37,-3.13 -16.67,0 -25.29,8.55 -25.65,25.65 0,7.7 1.99,13.97 6.06,18.81 3.56,4.42 8.48,7.7 14.61,9.83 5.41,2.21 12.61,3.92 21.66,5.2 20.45,3.49 36.13,9.98 46.96,19.6 10.9,10.05 16.32,21.73 16.32,35.06 0,23.52 -8.69,40.41 -26.08,50.52 -17.53,10.19 -38.76,15.25 -63.71,15.25 -17.96,0 -33.2,-2.64 -45.67,-7.91 -13.26,-5.99 -22.81,-11.69 -28.65,-17.11 -6.91,-5.98 -11.83,-11.04 -14.61,-15.03l22.16 -26.51c0,1.78 2.71,6.27 8.12,13.33 5.56,7.27 13.33,14.04 23.16,20.45 9.62,6.27 20.74,9.41 33.42,9.41 12.54,-0.43 22.16,-4.2 29,-11.47 6.84,-7.34 10.26,-16.96 10.26,-28.79 0,-10.9 -3.71,-20.24 -11.12,-28.22 -7.91,-7.77 -17.46,-12.33 -28.58,-13.54 -43.97,-6.41 -65.99,-22.88 -65.99,-49.31 0,-12.9 3.42,-23.02 10.26,-30.21 6.27,-7.12 15.11,-11.97 26.51,-14.61 11.69,-2.13 25.94,-3.35 42.76,-3.78 11.61,0 25.3,2.57 41.19,7.7l0 23.8zm412.95 166.82l0 -110.67 -31.78 0 0 33.64c0,14.61 -3.92,27.22 -11.9,37.76 -8.05,11.12 -18.88,19.53 -32.57,25.08 -13.18,5.99 -27.65,8.98 -43.4,8.98 -29.07,0 -51.24,-5.84 -66.42,-17.53 -14.47,-11.54 -23.73,-23.8 -27.72,-36.77 -3.78,-11.83 -5.63,-22.09 -5.63,-30.72l-21.3 0 0 -23.58 58.65 0c7.13,0 12.75,-3.42 16.89,-10.19 4.06,-7.13 6.06,-14.32 6.06,-21.73 0,-7.63 -2.14,-14.25 -6.49,-19.81 -3.85,-5.7 -9.19,-8.55 -16.03,-8.55l-43.26 0 0 -21.3 69.76 0c13.61,0 25.08,4.7 34.42,14.18 9.19,9.48 13.82,21.59 13.82,36.35 -0.43,23.37 -8.05,38.19 -22.8,44.46 -14.89,6.84 -27.79,10.19 -38.84,10.19 0,4.78 1,11.69 2.92,20.88 2.28,9.9 6.56,19.31 12.97,28.22 6.56,9.19 16.1,13.75 28.57,13.75 14.89,-0.43 25.94,-6.27 32.99,-17.53 7.41,-11.83 11.12,-25.37 11.12,-40.69l0 -90.22 47.39 0 0 42.83 32.57 0 0 -62.42 54.23 0 -0.36 173.23 23.59 0.43 0 21.73 -77.46 0zm93.49 0l0 -195.39 54.3 0 0.43 173.66 23.16 0 0 21.73 -77.89 0zm-107.89 -273.71l-0.64 -20.88 76.18 0 82.52 99.2 -47.39 0 -84.16 -78.32 -26.51 0zm258.46 96.27c-11.12,0 -22.23,2.42 -33.42,7.27l0 -25.22c0.71,-0.14 1.85,-0.36 3.35,-0.64l14.04 -2.28c1.07,-0.28 2.21,-0.43 3.28,-0.43 6.27,-0.57 10.97,-0.86 14.04,-0.86 17.82,0 33.07,3.28 45.68,9.83 12.26,6.7 21.45,16.04 27.58,28.15 5.99,11.97 8.98,25.87 8.98,41.54 -0.42,13.11 -3.42,24.73 -8.98,34.92 -5.7,9.97 -14.11,18.03 -25.22,24.01 -11.47,6.13 -25.15,9.34 -41.19,9.76 -11.26,0 -22.38,-2.85 -33.35,-8.55 -11.04,-5.7 -20.02,-11.83 -26.94,-18.38 -6.84,-5.98 -10.83,-10.05 -11.9,-12.33l25.22 -17.53c0,1.14 1.85,4.56 5.42,10.26 4.2,5.99 9.19,11.26 15.04,15.89 6.13,4.85 12.82,7.27 20.09,7.27 20.31,0 30.43,-17.81 30.43,-53.44 -0.43,-8.2 -1.85,-15.89 -4.35,-23.16 -3.21,-7.77 -7.06,-13.9 -11.47,-18.38 -4.78,-5.13 -10.19,-7.7 -16.32,-7.7zm120.28 177.44l0 -195.39 54.3 0 0.43 173.66 23.16 0 0 21.73 -77.89 0zm-107.89 -273.71l-0.64 -20.88 76.18 0 82.52 99.2 -47.39 0 -84.16 -78.32 -26.51 0zm131.33 78.32c-0.57,-0.29 -2.35,-2.43 -5.41,-6.49 -2.92,-3.64 -5.49,-8.83 -7.77,-15.68 -2.64,-6.56 -3.92,-13.54 -3.92,-21.09 0,-35.63 22.02,-53.45 66.13,-53.45 8.91,0 18.39,1.21 28.44,3.57l0 24.23c-5.13,-3.35 -14.61,-4.99 -28.44,-4.99 -7.77,0.43 -13.68,4.06 -17.74,11.04 -4.27,7.27 -6.41,16.32 -6.41,27.36 0,7.49 1.99,15.11 6.06,22.73 3.85,7.56 6.7,11.76 8.55,12.76l-39.48 0zm230.52 78.67l-61.21 0c5.99,1.71 12.76,5.77 20.31,12.33 7.05,6.27 10.62,17.39 10.62,33.42 -0.43,14.61 -6.7,25.87 -18.81,33.78 -12.61,8.27 -27.44,12.33 -44.47,12.33 -14.75,-0.43 -27.43,-2.35 -38.19,-5.84 -11.83,-3.99 -21.1,-10.19 -27.79,-18.53 -6.91,-8.55 -10.62,-19.88 -11.05,-34.06 0,-16.25 6.7,-29.86 20.03,-40.69 13.11,-10.62 28.86,-15.89 47.25,-15.89l103.32 0.43 0 22.73zm-57.22 32.99c-0.43,-11.12 -3.71,-19.1 -9.83,-24.02 -6.49,-5.56 -11.83,-8.55 -15.82,-8.98 -10.48,0 -18.88,2.57 -25.29,7.77 -6.77,5.13 -10.19,15.75 -10.19,31.92 0,10.05 3.13,17.32 9.34,21.95 5.98,4.28 13.25,6.7 21.73,7.27 10.05,0 17.6,-2.56 22.73,-7.7 4.92,-5.34 7.34,-14.68 7.34,-28.22zm57.01 83.73l0 -195.39 54.3 0 0.43 173.66 23.16 0 0 21.73 -77.89 0zm148.44 -21.73l21.3 0 0 21.73 -75.96 0 0 -210.43c0,-17.53 -1.99,-32.78 -6.06,-45.75 -4.34,-11.97 -12.97,-17.96 -25.87,-17.96 -18.38,0.42 -27.58,12.97 -27.58,37.62 0,5.27 0.5,10.26 1.43,15.03l1.71 9.76 -54.3 0 -0.86 -5.84c-0.64,-5.13 -1,-9.19 -1,-12.11 0,-16.53 5.56,-31.21 16.67,-44.04 11.12,-12.82 31.92,-19.17 62.42,-19.17 13.54,0 25.66,2.57 36.35,7.7 11.11,5.84 20.38,13.26 27.79,22.16 7.77,9.12 13.61,19.6 17.53,31.28 3.99,11.97 6.05,24.09 6.05,36.35l0.36 173.66z"/>
     <path class="fil2" d="M8143.24 1966.48c-2.78,0 -8.62,-1.71 -17.53,-5.2 -8.91,-2.92 -17.17,-7.7 -24.87,-14.4 -7.62,-6.42 -11.47,-14.25 -11.47,-23.59 0,-13.75 6.84,-23.87 20.45,-30.29 13.25,-5.98 29.14,-8.98 47.81,-8.98 10.05,0 22.3,1.14 36.77,3.35 13.9,2.21 22.3,3.99 25.23,5.2l-2.07 23.8c-1,-0.93 -2.85,-1.92 -5.63,-2.92 -2.35,-0.79 -5.91,-1.78 -10.69,-2.92 -7.49,-2.07 -16.32,-3.14 -26.51,-3.14 -18.17,0.43 -27.29,8.48 -27.29,24.02 0,5.98 1.57,12.11 4.77,18.38 2.78,6.13 7.49,10.26 13.97,12.33l94.99 -12.33 15.03 24.44 -86.01 5.42c2.78,0 8.91,1.85 18.38,5.63 10.33,3.64 19.52,9.34 27.79,17.11 8.91,7.98 13.33,18.45 13.33,31.57 -0.43,35.06 -30.79,52.59 -91.21,52.59 -19.52,0 -37.34,-3.71 -53.44,-11.04 -15.75,-7.41 -27.58,-14.18 -35.49,-20.45l22.3 -26.94c0.57,1.64 4.13,5.35 10.69,11.05 6.91,6.56 15.25,12.11 24.8,16.67 9.9,5.2 19.74,7.77 29.43,7.77 23.95,0 35.91,-11.54 35.91,-34.7 0,-10.26 -2.28,-18.53 -6.84,-24.8 -4.92,-6.7 -9.83,-11.4 -14.82,-14.18 -5.49,-3.06 -8.55,-4.64 -9.41,-4.64l-95.42 15.46 -8.98 -26.51 86.01 -7.77zm-6191.6 117.15l0 -203.8 53.59 0 77.53 134.25 0 -134.25 41.05 0 0 203.8 -46.18 0 -84.94 -145.08 0 145.08 -41.05 0zm216.06 0l0 -203.8 46.18 0 0 83.23 81.81 0 0 -83.23 46.18 0 0 203.8 -46.18 0 0 -84.08 -81.81 0 0 84.08 -46.18 0zm217.77 0l0 -203.8 80.09 0c22.23,0 39.05,4.46 50.45,13.4 11.4,8.93 17.1,22.14 17.1,39.62l0 1.14c0,22.81 -11.02,37.34 -33.06,43.61 27.17,5.51 40.76,21.47 40.76,47.88l0 1.14c0,18.62 -6.03,32.78 -18.1,42.47 -12.07,9.69 -29.88,14.54 -53.44,14.54l-83.8 0zm45.04 -31.92l31.64 0c22.04,0 33.07,-9.6 33.07,-28.79l0 -1.14c0,-9.5 -2.8,-16.62 -8.41,-21.37 -5.6,-4.75 -14.59,-7.13 -26.94,-7.13l-29.36 0 0 58.43zm0 -88.07l27.65 0c11.02,0 18.96,-2.09 23.8,-6.27 4.85,-4.18 7.27,-10.83 7.27,-19.95l0 -1.14c0,-8.55 -2.52,-14.82 -7.55,-18.81 -5.04,-3.99 -12.97,-5.98 -23.8,-5.98l-27.36 0 0 52.16zm2023.56 122.56c-6.27,0 -11.47,-3.06 -15.6,-9.19 -4.13,-6.13 -6.2,-12.33 -6.2,-18.6 0,-8.84 2.99,-16.04 8.98,-21.59 5.98,-5.56 13.54,-8.34 22.66,-8.34 11.12,0 19.67,4.85 25.66,14.54 4.85,7.98 7.12,17.39 6.84,28.22 -0.57,27.36 -10.12,47.32 -28.65,59.86 -10.26,6.84 -19.67,10.26 -28.22,10.26l-10.69 -18.38c4.56,-2.85 11.54,-9.26 20.95,-19.24 2.85,-5.13 4.27,-10.97 4.27,-17.53zm394.64 -6.34c-14.54,3.92 -26.22,5.91 -35.06,5.91 -17.67,-0.29 -31.35,-5.13 -41.05,-14.47 -7.12,-6.84 -10.69,-13.61 -10.69,-20.45l0 -56.58c-5.41,3.14 -12.26,4.71 -20.52,4.71 -15.11,0 -28.65,-4.42 -40.62,-13.26 -13.97,-9.97 -20.95,-23.23 -20.95,-39.76 0,-17.39 6.34,-31.35 19.03,-41.9 12.68,-10.55 29.14,-15.82 49.38,-15.82 18.81,0 34.84,4.56 48.1,13.61 13.25,9.12 19.88,20.95 19.88,35.42l0 95.91c1.14,8.84 6.13,13.26 14.96,13.26 5.13,0 10.97,-3.71 17.53,-11.12l0 44.54zm-85.08 -125.77l0 -18.38c0,-3.99 -1.71,-7.2 -5.13,-9.62 -3.42,-2.42 -7.27,-3.64 -11.54,-3.64 -6.27,0 -11.19,2.42 -14.75,7.27 -3.57,4.85 -5.35,10.26 -5.35,16.25 0,13.4 6.13,20.1 18.38,20.1 3.42,0 7.56,-1.85 12.4,-5.56 3.99,-3.42 5.98,-5.56 5.98,-6.41zm203.52 115.44c-22.81,0 -42.26,-8.12 -58.36,-24.37 -16.11,-16.25 -24.16,-35.77 -24.16,-58.58 0,-22.8 8.12,-42.47 24.37,-59 16.25,-16.53 35.63,-24.65 58.15,-24.37 23.09,0.28 42.4,8.62 57.93,25.01 15.53,16.39 23.3,35.84 23.3,58.36 0,22.52 -7.84,41.97 -23.51,58.36 -15.68,16.39 -34.92,24.58 -57.72,24.58zm0 -43.61c9.41,0 16.53,-4.27 21.37,-12.83 4.28,-7.12 6.42,-15.96 6.42,-26.51 0,-10.83 -1.99,-19.95 -5.99,-27.36 -4.85,-8.83 -12.11,-13.26 -21.8,-13.26 -9.69,0 -17.25,4.13 -22.66,12.4 -4.85,7.13 -7.27,16.11 -7.27,26.94 0,10.83 2.42,20.1 7.27,27.79 5.7,8.55 13.26,12.83 22.66,12.83zm195.39 43.61c-22.81,0 -42.26,-8.12 -58.36,-24.37 -16.11,-16.25 -24.16,-35.77 -24.16,-58.58 0,-22.8 8.12,-42.47 24.37,-59 16.25,-16.53 35.63,-24.65 58.15,-24.37 23.09,0.28 42.4,8.62 57.93,25.01 15.53,16.39 23.3,35.84 23.3,58.36 0,22.52 -7.84,41.97 -23.51,58.36 -15.68,16.39 -34.92,24.58 -57.72,24.58zm0 -43.61c9.41,0 16.53,-4.27 21.37,-12.83 4.28,-7.12 6.42,-15.96 6.42,-26.51 0,-10.83 -1.99,-19.95 -5.99,-27.36 -4.85,-8.83 -12.11,-13.26 -21.8,-13.26 -9.69,0 -17.25,4.13 -22.66,12.4 -4.85,7.13 -7.27,16.11 -7.27,26.94 0,10.83 2.42,20.1 7.27,27.79 5.7,8.55 13.26,12.83 22.66,12.83zm281.76 -137.24l26.08 0 -144.94 191.11 -26.94 0 145.8 -191.11zm-121.86 9.41c11.97,0 22.16,4.27 30.57,12.82 8.41,8.55 12.61,18.67 12.61,30.36 0,11.68 -4.2,21.81 -12.61,30.36 -8.41,8.55 -18.6,12.82 -30.57,12.82 -11.97,0 -22.23,-4.27 -30.78,-12.82 -8.55,-8.55 -12.83,-18.67 -12.83,-30.36 0,-11.68 4.28,-21.81 12.83,-30.36 8.55,-8.55 18.81,-12.82 30.78,-12.82zm0 21.8c-6.56,0 -11.61,2.21 -15.18,6.63 -3.56,4.42 -5.34,9.48 -5.34,15.18 0,5.7 1.78,10.76 5.34,15.18 3.56,4.42 8.62,6.63 15.18,6.63 6.56,0 11.69,-2.21 15.39,-6.63 3.71,-4.42 5.56,-9.48 5.56,-15.18 0,-5.7 -1.85,-10.76 -5.56,-15.18 -3.71,-4.42 -8.84,-6.63 -15.39,-6.63zm123.14 64.56c11.97,0 22.23,4.35 30.79,13.04 8.55,8.69 12.83,18.88 12.83,30.57 0,12.26 -4.28,22.59 -12.83,31 -8.55,8.41 -18.81,12.61 -30.79,12.61 -11.68,0 -21.8,-4.27 -30.35,-12.82 -8.55,-8.55 -12.83,-18.81 -12.83,-30.79 0,-11.69 4.35,-21.88 13.04,-30.57 8.69,-8.69 18.74,-13.04 30.14,-13.04zm0 22.23c-6.56,0 -11.61,2.21 -15.18,6.63 -3.56,4.42 -5.34,9.48 -5.34,15.18 0,5.7 1.78,10.76 5.34,15.18 3.56,4.42 8.62,6.63 15.18,6.63 6.56,0 11.76,-2.21 15.61,-6.63 3.85,-4.42 5.77,-9.48 5.77,-15.18 0,-5.7 -1.92,-10.76 -5.77,-15.18 -3.85,-4.42 -9.05,-6.63 -15.61,-6.63z"/>
    </g>
   </g>
  </g>
 </g>
</svg>
